<svg width="47" height="36" viewBox="0 0 47 36" fill="none" xmlns="http://www.w3.org/2000/svg">
<rect width="47" height="36" rx="4" fill="#F4F6F9" fill-opacity="0.15"/>
<g clip-path="url(#clip0_1_5998)">
<path d="M28.7916 25.8161H20.8301V10.959H28.7916V25.8161Z" fill="#B1B4B9"/>
<path d="M20.4337 18C20.4337 15.4483 21.6227 13.1753 23.4742 11.7105C22.1202 10.6393 20.4114 10 18.5543 10C14.1577 10 10.5938 13.5817 10.5938 18C10.5938 22.4184 14.1577 26 18.5543 26C20.4114 26 22.1202 25.3607 23.4742 24.2895C21.6227 22.8247 20.4337 20.5517 20.4337 18Z" fill="#F5F3F0"/>
<path d="M36.3478 18C36.3478 22.4184 32.7838 26 28.3872 26C26.5301 26 24.8213 25.3607 23.4668 24.2895C25.3189 22.8247 26.5078 20.5517 26.5078 18C26.5078 15.4483 25.3189 13.1753 23.4668 11.7105C24.8213 10.6393 26.5301 10 28.3872 10C32.7838 10 36.3478 13.5817 36.3478 18Z" fill="#7A7A7E"/>
</g>
<defs>
<clipPath id="clip0_1_5998">
<rect width="27" height="16" fill="white" transform="translate(10 10)"/>
</clipPath>
</defs>
</svg>
