<svg width="74" height="36" viewBox="0 0 74 36" fill="none" xmlns="http://www.w3.org/2000/svg">
<rect width="74" height="36" rx="4" fill="#F4F6F9" fill-opacity="0.15"/>
<g clip-path="url(#clip0_1_6003)">
<path fill-rule="evenodd" clip-rule="evenodd" d="M15.2331 10.8277C15.7094 10.8248 17.125 10.6968 17.7246 12.7289C18.1285 14.0977 18.7719 16.3398 19.6549 19.4554H20.0143C20.9612 16.1708 21.6117 13.9286 21.9657 12.7289C22.5716 10.6756 24.0862 10.8277 24.6921 10.8277L29.3664 10.8277V25.4283H24.6022V16.824H24.2827L21.6268 25.4283H18.0423L15.3865 16.8176H15.067V25.4283H10.3027V10.8277L15.2331 10.8277ZM36.2079 10.8277V19.4385H36.5879L39.8185 12.3579C40.4456 10.9489 41.7823 10.8277 41.7823 10.8277H46.3926V25.4284H41.5289V16.8176H41.1488L37.9816 23.8982C37.3545 25.3008 35.9545 25.4284 35.9545 25.4284H31.3441V10.8277H36.2079ZM63.2041 17.7661C62.5256 19.6966 60.395 21.0791 58.0362 21.0791H52.9355V25.4284H48.3103V17.7661H63.2041Z" fill="white"/>
<path fill-rule="evenodd" clip-rule="evenodd" d="M58.2598 10.8271H48.0684C48.3109 14.0777 51.0988 16.8605 53.9848 16.8605H63.526C64.0766 14.1588 62.1812 10.8271 58.2598 10.8271Z" fill="white"/>
</g>
<defs>
<clipPath id="clip0_1_6003">
<rect width="54" height="16" fill="white" transform="translate(10 10)"/>
</clipPath>
</defs>
</svg>
