<svg width="208" height="72" viewBox="0 0 208 72" fill="none" xmlns="http://www.w3.org/2000/svg">
<rect width="208" height="72" rx="10" fill="white" fill-opacity="0.1"/>
<rect x="0.5" y="0.5" width="207" height="71" rx="9.5" stroke="white" stroke-opacity="0.2"/>
<path fill-rule="evenodd" clip-rule="evenodd" d="M21.9789 19.725C22.2207 18.3211 23.3366 17.2891 24.745 17.0748C26.0944 16.8694 27.9457 16.667 29.9993 16.667C32.053 16.667 33.9043 16.8694 35.2537 17.0748C36.6621 17.2891 37.778 18.3211 38.0198 19.725C38.1883 20.7034 38.3327 21.9464 38.3327 23.3337C38.3327 24.7209 38.1883 25.9639 38.0198 26.9424C37.778 28.3463 36.6621 29.3783 35.2537 29.5926C34.0192 29.7804 32.3647 29.9658 30.5194 29.996L25.4233 33.0074C24.8678 33.3356 24.166 32.9352 24.166 32.29V29.4536C23.0381 29.0786 22.1865 28.1475 21.9789 26.9424C21.8104 25.9639 21.666 24.7209 21.666 23.3337C21.666 21.9464 21.8104 20.7034 21.9789 19.725ZM24.9993 21.667C24.9993 21.2068 25.3724 20.8337 25.8327 20.8337H34.166C34.6263 20.8337 34.9993 21.2068 34.9993 21.667C34.9993 22.1272 34.6263 22.5003 34.166 22.5003H25.8327C25.3724 22.5003 24.9993 22.1272 24.9993 21.667ZM24.9993 25.0003C24.9993 24.5401 25.3724 24.167 25.8327 24.167H29.166C29.6263 24.167 29.9993 24.5401 29.9993 25.0003C29.9993 25.4606 29.6263 25.8337 29.166 25.8337H25.8327C25.3724 25.8337 24.9993 25.4606 24.9993 25.0003Z" fill="white"/>
<path d="M56.7188 29L52.7188 24.2812V29H51.2031V18.9219H52.7188V23.5625L56.3984 18.9219H58.2422L54.1562 23.8828L58.5625 29H56.7188ZM64.25 25.3984C64.25 25.0547 64.1927 24.7422 64.0781 24.4609C63.9688 24.1797 63.8229 23.9349 63.6406 23.7266C63.4583 23.5182 63.2448 23.3594 63 23.25C62.7552 23.1354 62.5052 23.0781 62.25 23.0781C61.9948 23.0781 61.7448 23.1354 61.5 23.25C61.2552 23.3594 61.0417 23.5182 60.8594 23.7266C60.6771 23.9349 60.5286 24.1823 60.4141 24.4688C60.3047 24.75 60.25 25.0599 60.25 25.3984C60.25 25.7422 60.3047 26.0547 60.4141 26.3359C60.5286 26.6172 60.6771 26.862 60.8594 27.0703C61.0417 27.2786 61.2552 27.4401 61.5 27.5547C61.7448 27.6641 61.9948 27.7188 62.25 27.7188C62.5052 27.7188 62.7552 27.6641 63 27.5547C63.2448 27.4401 63.4583 27.2786 63.6406 27.0703C63.8229 26.862 63.9688 26.6172 64.0781 26.3359C64.1927 26.0547 64.25 25.7422 64.25 25.3984ZM65.6875 25.3984C65.6875 25.9401 65.599 26.4375 65.4219 26.8906C65.25 27.3385 65.0052 27.7266 64.6875 28.0547C64.375 28.3776 64.0104 28.6302 63.5938 28.8125C63.1771 28.9896 62.7292 29.0781 62.25 29.0781C61.7708 29.0781 61.3229 28.9896 60.9062 28.8125C60.4896 28.6302 60.1224 28.3776 59.8047 28.0547C59.4922 27.7266 59.2474 27.3385 59.0703 26.8906C58.8984 26.4427 58.8125 25.9453 58.8125 25.3984C58.8125 24.8568 58.8984 24.362 59.0703 23.9141C59.2474 23.4661 59.4922 23.0807 59.8047 22.7578C60.1224 22.4297 60.4896 22.1745 60.9062 21.9922C61.3229 21.8099 61.7708 21.7188 62.25 21.7188C62.7292 21.7188 63.1771 21.8099 63.5938 21.9922C64.0104 22.1745 64.375 22.4297 64.6875 22.7578C65.0052 23.0807 65.25 23.4661 65.4219 23.9141C65.599 24.362 65.6875 24.8568 65.6875 25.3984ZM73.5312 21.7969V29H72.0938V26.0391H68.6484V29H67.2109V21.7969H68.6484V24.6797H72.0938V21.7969H73.5312ZM81.6875 26.3594C81.6042 26.7448 81.4714 27.1042 81.2891 27.4375C81.1068 27.7656 80.875 28.0521 80.5938 28.2969C80.3177 28.5417 80 28.7344 79.6406 28.875C79.2865 29.0104 78.901 29.0781 78.4844 29.0781C78.0052 29.0781 77.5573 28.9896 77.1406 28.8125C76.724 28.6302 76.3568 28.3776 76.0391 28.0547C75.7266 27.7266 75.4818 27.3385 75.3047 26.8906C75.1328 26.4427 75.0469 25.9453 75.0469 25.3984C75.0469 24.8568 75.1328 24.362 75.3047 23.9141C75.4818 23.4661 75.7266 23.0807 76.0391 22.7578C76.3568 22.4297 76.724 22.1745 77.1406 21.9922C77.5573 21.8099 78.0052 21.7188 78.4844 21.7188C78.901 21.7188 79.2865 21.7891 79.6406 21.9297C80 22.0651 80.3177 22.2578 80.5938 22.5078C80.875 22.7526 81.1042 23.0417 81.2812 23.375C81.4635 23.7031 81.599 24.0573 81.6875 24.4375H80.1641C80.0443 24.0312 79.8464 23.7031 79.5703 23.4531C79.2943 23.2031 78.9323 23.0781 78.4844 23.0781C78.2292 23.0781 77.9792 23.1354 77.7344 23.25C77.4896 23.3594 77.276 23.5182 77.0938 23.7266C76.9115 23.9349 76.763 24.1823 76.6484 24.4688C76.5391 24.75 76.4844 25.0599 76.4844 25.3984C76.4844 25.7422 76.5391 26.0547 76.6484 26.3359C76.763 26.6172 76.9115 26.862 77.0938 27.0703C77.276 27.2786 77.4896 27.4401 77.7344 27.5547C77.9792 27.6641 78.2292 27.7188 78.4844 27.7188C78.9323 27.7188 79.2943 27.5938 79.5703 27.3438C79.8516 27.0938 80.0495 26.7656 80.1641 26.3594H81.6875ZM82.3281 21.7969H83.8516L85.8516 27L87.8516 21.7969H89.375L86.3281 29.4766C86.1667 29.8828 86.0078 30.2214 85.8516 30.4922C85.7005 30.7682 85.5339 30.9896 85.3516 31.1562C85.1745 31.3281 84.9766 31.4505 84.7578 31.5234C84.5391 31.6016 84.2917 31.6406 84.0156 31.6406C83.9531 31.6406 83.8932 31.638 83.8359 31.6328C83.7839 31.6276 83.7318 31.6198 83.6797 31.6094C83.6276 31.599 83.5781 31.5833 83.5312 31.5625V30.3594C83.9375 30.3594 84.2448 30.2734 84.4531 30.1016C84.6615 29.9349 84.8073 29.7266 84.8906 29.4766L85.1328 28.7578L82.3281 21.7969ZM96.4141 21.7969V29H94.9688V23.1562H92.5703L92.3281 26.6016C92.276 27.4036 92.0469 28.0182 91.6406 28.4453C91.2396 28.8672 90.6953 29.0781 90.0078 29.0781C89.9453 29.0781 89.888 29.0755 89.8359 29.0703C89.7839 29.0651 89.7292 29.0573 89.6719 29.0469C89.6198 29.0365 89.5729 29.0208 89.5312 29V27.7969H89.6875C90.4219 27.7969 90.8229 27.3984 90.8906 26.6016L91.2891 21.7969H96.4141ZM101.531 24.2031C101.896 24.2031 102.229 24.2656 102.531 24.3906C102.839 24.5104 103.102 24.6771 103.32 24.8906C103.539 25.1042 103.708 25.3568 103.828 25.6484C103.953 25.9401 104.016 26.2578 104.016 26.6016C104.016 26.9453 103.953 27.263 103.828 27.5547C103.708 27.8464 103.539 28.099 103.32 28.3125C103.102 28.526 102.839 28.6953 102.531 28.8203C102.229 28.9401 101.896 29 101.531 29H98.3359V21.7969H99.7734V24.2031H101.531ZM101.531 27.6406C101.807 27.6406 102.049 27.5365 102.258 27.3281C102.471 27.1198 102.578 26.8776 102.578 26.6016C102.578 26.3255 102.474 26.0833 102.266 25.875C102.057 25.6667 101.812 25.5625 101.531 25.5625H99.7734V27.6406H101.531ZM104.18 21.7969H110.094V23.1562H107.859V29H106.414V23.1562H104.18V21.7969ZM114.023 21.7188C114.44 21.7188 114.82 21.7865 115.164 21.9219C115.513 22.0521 115.81 22.2318 116.055 22.4609C116.299 22.6901 116.49 22.9609 116.625 23.2734C116.76 23.5807 116.828 23.9167 116.828 24.2812V29H115.789L115.469 28.2812C115.328 28.4323 115.161 28.5651 114.969 28.6797C114.797 28.7839 114.581 28.8776 114.32 28.9609C114.06 29.0391 113.747 29.0781 113.383 29.0781C112.581 29.0781 111.966 28.8802 111.539 28.4844C111.117 28.0833 110.906 27.5625 110.906 26.9219C110.906 26.5573 110.974 26.2292 111.109 25.9375C111.25 25.6406 111.487 25.3906 111.82 25.1875C112.159 24.9792 112.615 24.8177 113.188 24.7031C113.766 24.5833 114.497 24.5234 115.383 24.5234V24.2812C115.383 23.9167 115.268 23.625 115.039 23.4062C114.81 23.1875 114.471 23.0781 114.023 23.0781C113.544 23.0781 113.195 23.1641 112.977 23.3359C112.758 23.5078 112.628 23.7161 112.586 23.9609H111.148C111.19 23.3203 111.458 22.7865 111.953 22.3594C112.448 21.9323 113.138 21.7188 114.023 21.7188ZM113.469 27.7969C114.078 27.7969 114.549 27.6406 114.883 27.3281C115.216 27.0156 115.383 26.6354 115.383 26.1875V25.7969C114.742 25.7969 114.224 25.8281 113.828 25.8906C113.438 25.9479 113.13 26.0286 112.906 26.1328C112.682 26.2318 112.531 26.3568 112.453 26.5078C112.38 26.6536 112.344 26.8177 112.344 27C112.344 27.2031 112.44 27.388 112.633 27.5547C112.826 27.7161 113.104 27.7969 113.469 27.7969ZM125.781 27.6406V30.6797H124.422V29H118.664V21.7969H120.102V27.6406H123.383V21.7969H124.82V27.6406H125.781ZM133.391 21.7969V29H131.953V23.9609L128.508 29H127.07V21.7969H128.508V26.8438L131.953 21.7969H133.391ZM140.82 21.7969V29H139.383V26.6016H137.945L136.422 29H134.82L136.5 26.3594C136.224 26.2552 135.984 26.1068 135.781 25.9141C135.599 25.7422 135.432 25.5208 135.281 25.25C135.135 24.9792 135.062 24.6302 135.062 24.2031C135.062 23.8594 135.122 23.5417 135.242 23.25C135.367 22.9531 135.539 22.7005 135.758 22.4922C135.977 22.2786 136.237 22.1094 136.539 21.9844C136.846 21.8594 137.182 21.7969 137.547 21.7969H140.82ZM137.547 23.1562C137.271 23.1562 137.026 23.2604 136.812 23.4688C136.604 23.6771 136.5 23.9219 136.5 24.2031C136.5 24.4792 136.604 24.7214 136.812 24.9297C137.021 25.138 137.266 25.2422 137.547 25.2422H139.383V23.1562H137.547ZM153.938 23.9609C153.938 23.4193 153.844 22.9193 153.656 22.4609C153.469 21.9974 153.224 21.599 152.922 21.2656C152.62 20.9271 152.271 20.6667 151.875 20.4844C151.479 20.2969 151.073 20.2031 150.656 20.2031C150.24 20.2031 149.833 20.2969 149.438 20.4844C149.047 20.6667 148.698 20.9271 148.391 21.2656C148.089 21.599 147.844 21.9948 147.656 22.4531C147.469 22.9115 147.375 23.4141 147.375 23.9609C147.375 24.5026 147.469 25.0026 147.656 25.4609C147.844 25.9193 148.089 26.3177 148.391 26.6562C148.698 26.9896 149.047 27.25 149.438 27.4375C149.833 27.625 150.24 27.7188 150.656 27.7188C151.073 27.7188 151.479 27.625 151.875 27.4375C152.271 27.25 152.62 26.9896 152.922 26.6562C153.224 26.3177 153.469 25.9193 153.656 25.4609C153.844 25.0026 153.938 24.5026 153.938 23.9609ZM155.453 23.9609C155.453 24.6849 155.323 25.3568 155.062 25.9766C154.802 26.5964 154.453 27.138 154.016 27.6016C153.578 28.0651 153.068 28.4271 152.484 28.6875C151.906 28.9479 151.297 29.0781 150.656 29.0781C150.016 29.0781 149.404 28.9479 148.82 28.6875C148.242 28.4271 147.734 28.0651 147.297 27.6016C146.859 27.138 146.51 26.5964 146.25 25.9766C145.99 25.3568 145.859 24.6849 145.859 23.9609C145.859 23.2474 145.99 22.5781 146.25 21.9531C146.51 21.3281 146.859 20.7839 147.297 20.3203C147.734 19.8568 148.242 19.4948 148.82 19.2344C149.404 18.974 150.016 18.8438 150.656 18.8438C151.297 18.8438 151.906 18.974 152.484 19.2344C153.068 19.4948 153.578 19.8568 154.016 20.3203C154.453 20.7839 154.802 21.3281 155.062 21.9531C155.323 22.5781 155.453 23.2474 155.453 23.9609ZM160.414 21.7188C160.81 21.7188 161.182 21.7969 161.531 21.9531C161.885 22.1094 162.193 22.3229 162.453 22.5938C162.714 22.8646 162.919 23.1927 163.07 23.5781C163.221 23.9583 163.297 24.3802 163.297 24.8438V29H161.859V24.8438C161.859 24.6094 161.812 24.3854 161.719 24.1719C161.63 23.9583 161.508 23.7708 161.352 23.6094C161.195 23.4479 161.016 23.3203 160.812 23.2266C160.609 23.1276 160.396 23.0781 160.172 23.0781C159.927 23.0781 159.698 23.1276 159.484 23.2266C159.271 23.3203 159.083 23.4479 158.922 23.6094C158.766 23.7708 158.641 23.9583 158.547 24.1719C158.458 24.3802 158.414 24.6042 158.414 24.8438V29H156.977V21.7969H158.016L158.336 22.5234C158.477 22.3724 158.641 22.237 158.828 22.1172C159 22.0234 159.216 21.9349 159.477 21.8516C159.737 21.763 160.049 21.7188 160.414 21.7188ZM166.648 29H165.211V18.9219H166.648V29ZM170.086 29H168.648V21.7969H170.086V29ZM169.367 20.6797C169.122 20.6797 168.914 20.5964 168.742 20.4297C168.57 20.2578 168.484 20.0469 168.484 19.7969C168.484 19.5521 168.57 19.3464 168.742 19.1797C168.914 19.0078 169.122 18.9219 169.367 18.9219C169.612 18.9219 169.82 19.0078 169.992 19.1797C170.164 19.3464 170.25 19.5521 170.25 19.7969C170.25 20.0417 170.164 20.25 169.992 20.4219C169.82 20.5938 169.612 20.6797 169.367 20.6797ZM175.445 21.7188C175.841 21.7188 176.214 21.7969 176.562 21.9531C176.917 22.1094 177.224 22.3229 177.484 22.5938C177.745 22.8646 177.951 23.1927 178.102 23.5781C178.253 23.9583 178.328 24.3802 178.328 24.8438V29H176.891V24.8438C176.891 24.6094 176.844 24.3854 176.75 24.1719C176.661 23.9583 176.539 23.7708 176.383 23.6094C176.227 23.4479 176.047 23.3203 175.844 23.2266C175.641 23.1276 175.427 23.0781 175.203 23.0781C174.958 23.0781 174.729 23.1276 174.516 23.2266C174.302 23.3203 174.115 23.4479 173.953 23.6094C173.797 23.7708 173.672 23.9583 173.578 24.1719C173.49 24.3802 173.445 24.6042 173.445 24.8438V29H172.008V21.7969H173.047L173.367 22.5234C173.508 22.3724 173.672 22.237 173.859 22.1172C174.031 22.0234 174.247 21.9349 174.508 21.8516C174.768 21.763 175.081 21.7188 175.445 21.7188ZM186.406 26.9219C186.286 27.2188 186.135 27.4974 185.953 27.7578C185.771 28.0182 185.552 28.2474 185.297 28.4453C185.042 28.6432 184.745 28.7995 184.406 28.9141C184.073 29.0234 183.698 29.0781 183.281 29.0781C182.802 29.0781 182.354 28.9896 181.938 28.8125C181.521 28.6302 181.156 28.3776 180.844 28.0547C180.531 27.7266 180.286 27.3385 180.109 26.8906C179.932 26.4427 179.844 25.9453 179.844 25.3984C179.844 24.8568 179.932 24.362 180.109 23.9141C180.286 23.4661 180.526 23.0807 180.828 22.7578C181.13 22.4297 181.487 22.1745 181.898 21.9922C182.31 21.8099 182.745 21.7188 183.203 21.7188C183.661 21.7188 184.096 21.8099 184.508 21.9922C184.919 22.1745 185.276 22.4297 185.578 22.7578C185.88 23.0807 186.12 23.4661 186.297 23.9141C186.474 24.362 186.562 24.8568 186.562 25.3984C186.562 25.4818 186.557 25.5651 186.547 25.6484C186.536 25.7266 186.526 25.7943 186.516 25.8516C186.505 25.9245 186.495 25.987 186.484 26.0391H181.359C181.38 26.263 181.445 26.4766 181.555 26.6797C181.664 26.8828 181.799 27.0625 181.961 27.2188C182.128 27.3698 182.326 27.4922 182.555 27.5859C182.784 27.6745 183.026 27.7188 183.281 27.7188C183.719 27.7188 184.065 27.625 184.32 27.4375C184.581 27.25 184.768 27.0781 184.883 26.9219H186.406ZM183.203 23.0781C182.724 23.0781 182.318 23.2422 181.984 23.5703C181.656 23.8932 181.448 24.3177 181.359 24.8438H185.203C185.12 24.3229 184.906 23.8984 184.562 23.5703C184.224 23.2422 183.771 23.0781 183.203 23.0781Z" fill="white"/>
<path d="M50.4922 44.5605C50.5286 44.2142 50.6175 43.8906 50.7588 43.5898C50.9046 43.2845 51.096 43.0247 51.333 42.8105C51.5745 42.5964 51.8594 42.4277 52.1875 42.3047C52.5202 42.1771 52.887 42.1133 53.2881 42.1133C53.6891 42.1133 54.0583 42.1794 54.3955 42.3115C54.7327 42.4391 55.0199 42.6146 55.2568 42.8379C55.4938 43.0612 55.6807 43.321 55.8174 43.6172C55.9541 43.9089 56.0225 44.2233 56.0225 44.5605C56.0225 44.8796 55.9587 45.153 55.8311 45.3809C55.7035 45.6087 55.5667 45.7979 55.4209 45.9482C55.2523 46.1169 55.0563 46.2604 54.833 46.3789C55.1019 46.502 55.3434 46.6615 55.5576 46.8574C55.7445 47.026 55.9154 47.2516 56.0703 47.5342C56.2253 47.8122 56.3027 48.1517 56.3027 48.5527C56.3027 48.89 56.2321 49.209 56.0908 49.5098C55.9495 49.8105 55.7467 50.0771 55.4824 50.3096C55.2227 50.5374 54.9128 50.722 54.5527 50.8633C54.1973 51 53.8008 51.0684 53.3633 51.0684C52.9258 51.0684 52.5316 51.0068 52.1807 50.8838C51.8298 50.7562 51.5267 50.5853 51.2715 50.3711C51.0208 50.1569 50.818 49.9017 50.6631 49.6055C50.5081 49.3047 50.4033 48.9766 50.3486 48.6211H51.4697C51.5426 49.0404 51.7363 49.3913 52.0508 49.6738C52.3652 49.9518 52.8027 50.0908 53.3633 50.0908C53.9238 50.0908 54.3659 49.9404 54.6895 49.6396C55.0176 49.3343 55.1816 48.972 55.1816 48.5527C55.1816 48.1335 55.0176 47.7712 54.6895 47.4658C54.3613 47.1605 53.9193 47.0078 53.3633 47.0078H52.7139V46.0303H53.2881C53.7848 46.0303 54.1768 45.8913 54.4639 45.6133C54.7555 45.3307 54.9014 44.9798 54.9014 44.5605C54.9014 44.1413 54.7555 43.7926 54.4639 43.5146C54.1768 43.2321 53.7848 43.0908 53.2881 43.0908C52.7913 43.0908 52.3971 43.2321 52.1055 43.5146C51.8138 43.7926 51.6497 44.1413 51.6133 44.5605H50.4922ZM60.1514 44.6289C60.4977 44.6289 60.819 44.6882 61.1152 44.8066C61.4115 44.9251 61.6621 45.0801 61.8672 45.2715C62.0768 45.4674 62.2409 45.6976 62.3594 45.9619C62.4779 46.2217 62.5348 46.502 62.5303 46.8027V51H61.7646L61.4844 50.3027C61.3431 50.4531 61.1836 50.583 61.0059 50.6924C60.8464 50.7972 60.6504 50.8861 60.418 50.959C60.1855 51.0319 59.9098 51.0684 59.5908 51.0684C59.2718 51.0684 58.9847 51.0205 58.7295 50.9248C58.4743 50.8245 58.2555 50.6878 58.0732 50.5146C57.891 50.3415 57.7497 50.141 57.6494 49.9131C57.5446 49.6852 57.4922 49.4414 57.4922 49.1816C57.4922 48.8809 57.5537 48.6074 57.6768 48.3613C57.7998 48.1152 58.0094 47.901 58.3057 47.7188C58.6064 47.5365 59.0143 47.3952 59.5293 47.2949C60.0488 47.1947 60.7005 47.1468 61.4844 47.1514V46.8027C61.4844 46.4837 61.3613 46.2057 61.1152 45.9688C60.8691 45.7318 60.5479 45.6133 60.1514 45.6133C59.7594 45.6133 59.4701 45.693 59.2832 45.8525C59.0964 46.0166 58.9665 46.2399 58.8936 46.5225H57.7725C57.8089 46.2627 57.8887 46.0166 58.0117 45.7842C58.1348 45.5563 58.2965 45.3558 58.4971 45.1826C58.6976 45.0094 58.9346 44.875 59.208 44.7793C59.4814 44.679 59.7959 44.6289 60.1514 44.6289ZM59.5908 50.0908C59.8688 50.0908 60.1263 50.0452 60.3633 49.9541C60.5957 49.8675 60.7939 49.7536 60.958 49.6123C61.1221 49.471 61.2497 49.3161 61.3408 49.1475C61.432 48.9743 61.4798 48.7988 61.4844 48.6211V48.1289C60.8509 48.1289 60.3428 48.154 59.96 48.2041C59.5771 48.2542 59.2809 48.3294 59.0713 48.4297C58.8617 48.5299 58.7204 48.6462 58.6475 48.7783C58.5791 48.915 58.5449 49.0723 58.5449 49.25C58.5449 49.4642 58.6406 49.6579 58.832 49.8311C59.0189 50.0042 59.2718 50.0908 59.5908 50.0908ZM69.9541 50.0225V52.5381H68.9697V51H64.3486V52.5381H63.3711V50.0225H63.7197C63.861 49.9176 63.9863 49.7946 64.0957 49.6533C64.2005 49.5303 64.2962 49.3867 64.3828 49.2227C64.474 49.054 64.5332 48.8535 64.5605 48.6211L64.9844 44.6973H69.1133V50.0225H69.9541ZM65.6133 48.6211C65.5951 48.8535 65.5495 49.054 65.4766 49.2227C65.4082 49.3913 65.3353 49.5348 65.2578 49.6533C65.1667 49.7946 65.0755 49.9176 64.9844 50.0225H68.0605V45.6816H65.9209L65.6133 48.6211ZM73.5225 44.6289C73.8688 44.6289 74.1901 44.6882 74.4863 44.8066C74.7826 44.9251 75.0332 45.0801 75.2383 45.2715C75.4479 45.4674 75.612 45.6976 75.7305 45.9619C75.849 46.2217 75.9059 46.502 75.9014 46.8027V51H75.1357L74.8555 50.3027C74.7142 50.4531 74.5547 50.583 74.377 50.6924C74.2174 50.7972 74.0215 50.8861 73.7891 50.959C73.5566 51.0319 73.2809 51.0684 72.9619 51.0684C72.6429 51.0684 72.3558 51.0205 72.1006 50.9248C71.8454 50.8245 71.6266 50.6878 71.4443 50.5146C71.262 50.3415 71.1208 50.141 71.0205 49.9131C70.9157 49.6852 70.8633 49.4414 70.8633 49.1816C70.8633 48.8809 70.9248 48.6074 71.0479 48.3613C71.1709 48.1152 71.3805 47.901 71.6768 47.7188C71.9775 47.5365 72.3854 47.3952 72.9004 47.2949C73.4199 47.1947 74.0716 47.1468 74.8555 47.1514V46.8027C74.8555 46.4837 74.7324 46.2057 74.4863 45.9688C74.2402 45.7318 73.9189 45.6133 73.5225 45.6133C73.1305 45.6133 72.8411 45.693 72.6543 45.8525C72.4674 46.0166 72.3376 46.2399 72.2646 46.5225H71.1436C71.18 46.2627 71.2598 46.0166 71.3828 45.7842C71.5059 45.5563 71.6676 45.3558 71.8682 45.1826C72.0687 45.0094 72.3057 44.875 72.5791 44.7793C72.8525 44.679 73.167 44.6289 73.5225 44.6289ZM72.9619 50.0908C73.2399 50.0908 73.4974 50.0452 73.7344 49.9541C73.9668 49.8675 74.165 49.7536 74.3291 49.6123C74.4932 49.471 74.6208 49.3161 74.7119 49.1475C74.8031 48.9743 74.8509 48.7988 74.8555 48.6211V48.1289C74.222 48.1289 73.7139 48.154 73.3311 48.2041C72.9482 48.2542 72.652 48.3294 72.4424 48.4297C72.2327 48.5299 72.0915 48.6462 72.0186 48.7783C71.9502 48.915 71.916 49.0723 71.916 49.25C71.916 49.4642 72.0117 49.6579 72.2031 49.8311C72.39 50.0042 72.6429 50.0908 72.9619 50.0908ZM81.5 47.7119C81.6777 47.7939 81.8418 47.901 81.9922 48.0332C82.1152 48.1471 82.2269 48.2975 82.3271 48.4844C82.432 48.6667 82.4844 48.8991 82.4844 49.1816C82.4844 49.7148 82.3135 50.1523 81.9717 50.4941C81.6299 50.8314 81.1924 51 80.6592 51H77.6514V44.6973H80.4541C80.7139 44.6973 80.9554 44.7428 81.1787 44.834C81.402 44.9206 81.5934 45.0436 81.7529 45.2031C81.9124 45.3626 82.0378 45.5495 82.1289 45.7637C82.2246 45.9779 82.2725 46.2057 82.2725 46.4473C82.2725 46.6797 82.2314 46.8734 82.1494 47.0283C82.0719 47.1833 81.9831 47.3132 81.8828 47.418C81.7689 47.5319 81.6413 47.6299 81.5 47.7119ZM78.7041 45.6816V47.2881H80.3105C80.5885 47.2881 80.8096 47.2152 80.9736 47.0693C81.1377 46.9189 81.2197 46.7367 81.2197 46.5225C81.2197 46.2809 81.1377 46.0804 80.9736 45.9209C80.8141 45.7614 80.5931 45.6816 80.3105 45.6816H78.7041ZM80.5225 50.0225C80.764 50.0225 80.9759 49.9313 81.1582 49.749C81.3405 49.5667 81.4316 49.3548 81.4316 49.1133C81.4316 49.0085 81.4089 48.9059 81.3633 48.8057C81.3177 48.7008 81.2516 48.6097 81.165 48.5322C81.083 48.4502 80.985 48.3864 80.8711 48.3408C80.7617 48.2952 80.6455 48.2725 80.5225 48.2725H78.7041V50.0225H80.5225ZM86.333 44.6289C86.6794 44.6289 87.0007 44.6882 87.2969 44.8066C87.5931 44.9251 87.8438 45.0801 88.0488 45.2715C88.2585 45.4674 88.4225 45.6976 88.541 45.9619C88.6595 46.2217 88.7165 46.502 88.7119 46.8027V51H87.9463L87.666 50.3027C87.5247 50.4531 87.3652 50.583 87.1875 50.6924C87.028 50.7972 86.832 50.8861 86.5996 50.959C86.3672 51.0319 86.0915 51.0684 85.7725 51.0684C85.4535 51.0684 85.1663 51.0205 84.9111 50.9248C84.6559 50.8245 84.4372 50.6878 84.2549 50.5146C84.0726 50.3415 83.9313 50.141 83.8311 49.9131C83.7262 49.6852 83.6738 49.4414 83.6738 49.1816C83.6738 48.8809 83.7354 48.6074 83.8584 48.3613C83.9814 48.1152 84.1911 47.901 84.4873 47.7188C84.7881 47.5365 85.196 47.3952 85.7109 47.2949C86.2305 47.1947 86.8822 47.1468 87.666 47.1514V46.8027C87.666 46.4837 87.543 46.2057 87.2969 45.9688C87.0508 45.7318 86.7295 45.6133 86.333 45.6133C85.9411 45.6133 85.6517 45.693 85.4648 45.8525C85.278 46.0166 85.1481 46.2399 85.0752 46.5225H83.9541C83.9906 46.2627 84.0703 46.0166 84.1934 45.7842C84.3164 45.5563 84.4782 45.3558 84.6787 45.1826C84.8792 45.0094 85.1162 44.875 85.3896 44.7793C85.6631 44.679 85.9775 44.6289 86.333 44.6289ZM85.7725 50.0908C86.0505 50.0908 86.3079 50.0452 86.5449 49.9541C86.7773 49.8675 86.9756 49.7536 87.1396 49.6123C87.3037 49.471 87.4313 49.3161 87.5225 49.1475C87.6136 48.9743 87.6615 48.7988 87.666 48.6211V48.1289C87.0326 48.1289 86.5244 48.154 86.1416 48.2041C85.7588 48.2542 85.4626 48.3294 85.2529 48.4297C85.0433 48.5299 84.902 48.6462 84.8291 48.7783C84.7607 48.915 84.7266 49.0723 84.7266 49.25C84.7266 49.4642 84.8223 49.6579 85.0137 49.8311C85.2005 50.0042 85.4535 50.0908 85.7725 50.0908ZM93.1211 43.7197C92.6654 43.7197 92.2894 43.5671 91.9932 43.2617C91.6969 42.9564 91.5124 42.5964 91.4395 42.1816H92.2803C92.3167 42.4232 92.4124 42.6237 92.5674 42.7832C92.7223 42.9427 92.9069 43.0225 93.1211 43.0225C93.3353 43.0225 93.5199 42.9427 93.6748 42.7832C93.8298 42.6237 93.9255 42.4232 93.9619 42.1816H94.8027C94.7298 42.6009 94.5452 42.9609 94.249 43.2617C93.9528 43.5671 93.5768 43.7197 93.1211 43.7197ZM95.7803 44.6973V51H94.7344V46.3105L91.5146 51H90.4619V44.6973H91.5146V49.3867L94.7344 44.6973H95.7803ZM96.9014 44.6973H101.871V45.6816H99.9092V51H98.8564V45.6816H96.9014V44.6973ZM107.962 49.3184C107.857 49.5417 107.725 49.7604 107.565 49.9746C107.406 50.1888 107.219 50.3757 107.005 50.5352C106.791 50.6947 106.549 50.8245 106.28 50.9248C106.011 51.0251 105.708 51.0729 105.371 51.0684C104.97 51.0684 104.59 50.9886 104.229 50.8291C103.869 50.6696 103.557 50.4486 103.293 50.166C103.029 49.8835 102.817 49.5462 102.657 49.1543C102.502 48.7624 102.427 48.3271 102.432 47.8486C102.432 47.3747 102.507 46.9417 102.657 46.5498C102.812 46.1579 103.022 45.8184 103.286 45.5312C103.546 45.2487 103.851 45.0277 104.202 44.8682C104.553 44.7087 104.92 44.6289 105.303 44.6289C105.686 44.6289 106.046 44.7041 106.383 44.8545C106.725 45.0049 107.021 45.2168 107.271 45.4902C107.522 45.7637 107.723 46.0964 107.873 46.4883C108.023 46.8757 108.099 47.3063 108.099 47.7803C108.099 47.8714 108.094 47.9512 108.085 48.0195C108.076 48.0833 108.067 48.138 108.058 48.1836C108.049 48.2383 108.039 48.2907 108.03 48.3408H103.553C103.571 48.5641 103.632 48.7829 103.737 48.9971C103.847 49.2113 103.983 49.3981 104.147 49.5576C104.312 49.7171 104.501 49.8447 104.715 49.9404C104.929 50.0407 105.148 50.0908 105.371 50.0908C105.567 50.0908 105.743 50.0635 105.897 50.0088C106.052 49.9541 106.191 49.888 106.314 49.8105C106.442 49.7376 106.547 49.6556 106.629 49.5645C106.711 49.4779 106.782 49.3958 106.841 49.3184H107.962ZM105.303 45.6133C105.089 45.6133 104.883 45.6589 104.688 45.75C104.496 45.8411 104.323 45.9665 104.168 46.126C104.008 46.2855 103.874 46.4769 103.765 46.7002C103.655 46.9235 103.585 47.1673 103.553 47.4316H106.978C106.905 46.8711 106.711 46.4268 106.396 46.0986C106.087 45.7751 105.722 45.6133 105.303 45.6133ZM116.35 47.7119C116.527 47.7939 116.691 47.901 116.842 48.0332C116.965 48.1471 117.076 48.2975 117.177 48.4844C117.282 48.6667 117.334 48.8991 117.334 49.1816C117.334 49.7148 117.163 50.1523 116.821 50.4941C116.479 50.8314 116.042 51 115.509 51H112.501V44.6973H115.304C115.563 44.6973 115.805 44.7428 116.028 44.834C116.252 44.9206 116.443 45.0436 116.603 45.2031C116.762 45.3626 116.887 45.5495 116.979 45.7637C117.074 45.9779 117.122 46.2057 117.122 46.4473C117.122 46.6797 117.081 46.8734 116.999 47.0283C116.922 47.1833 116.833 47.3132 116.732 47.418C116.618 47.5319 116.491 47.6299 116.35 47.7119ZM113.554 45.6816V47.2881H115.16C115.438 47.2881 115.659 47.2152 115.823 47.0693C115.987 46.9189 116.069 46.7367 116.069 46.5225C116.069 46.2809 115.987 46.0804 115.823 45.9209C115.664 45.7614 115.443 45.6816 115.16 45.6816H113.554ZM115.372 50.0225C115.614 50.0225 115.826 49.9313 116.008 49.749C116.19 49.5667 116.281 49.3548 116.281 49.1133C116.281 49.0085 116.258 48.9059 116.213 48.8057C116.167 48.7008 116.101 48.6097 116.015 48.5322C115.933 48.4502 115.835 48.3864 115.721 48.3408C115.611 48.2952 115.495 48.2725 115.372 48.2725H113.554V50.0225H115.372ZM119.433 47.8486C119.433 48.1859 119.485 48.4912 119.59 48.7646C119.695 49.0381 119.834 49.2751 120.007 49.4756C120.185 49.6715 120.387 49.8219 120.615 49.9268C120.843 50.0361 121.08 50.0908 121.326 50.0908C121.568 50.0908 121.802 50.0361 122.03 49.9268C122.258 49.8174 122.459 49.667 122.632 49.4756C122.805 49.2796 122.946 49.0426 123.056 48.7646C123.165 48.4912 123.217 48.1859 123.213 47.8486C123.213 47.5114 123.16 47.2061 123.056 46.9326C122.946 46.6592 122.805 46.4245 122.632 46.2285C122.459 46.0326 122.258 45.8799 122.03 45.7705C121.802 45.6611 121.568 45.6087 121.326 45.6133C121.085 45.6133 120.848 45.6657 120.615 45.7705C120.387 45.8799 120.185 46.0326 120.007 46.2285C119.829 46.4245 119.69 46.6592 119.59 46.9326C119.485 47.2061 119.433 47.5114 119.433 47.8486ZM124.266 47.8486C124.266 48.3226 124.188 48.7578 124.033 49.1543C123.878 49.5462 123.669 49.8835 123.404 50.166C123.14 50.4486 122.828 50.6696 122.468 50.8291C122.108 50.9886 121.727 51.0684 121.326 51.0684C120.925 51.0684 120.545 50.9886 120.185 50.8291C119.825 50.6696 119.512 50.4486 119.248 50.166C118.984 49.8835 118.772 49.5462 118.612 49.1543C118.457 48.7624 118.382 48.3271 118.387 47.8486C118.387 47.3747 118.462 46.9417 118.612 46.5498C118.767 46.1579 118.979 45.8184 119.248 45.5312C119.512 45.2487 119.825 45.0277 120.185 44.8682C120.545 44.7087 120.925 44.6289 121.326 44.6289C121.727 44.6289 122.108 44.7087 122.468 44.8682C122.828 45.0277 123.14 45.2487 123.404 45.5312C123.669 45.8138 123.878 46.1533 124.033 46.5498C124.188 46.9417 124.266 47.3747 124.266 47.8486ZM130.985 44.6973V51H129.939V45.6816H126.72V51H125.667V44.6973H130.985ZM133.713 47.8486C133.713 48.1859 133.768 48.4912 133.877 48.7646C133.986 49.0381 134.128 49.2751 134.301 49.4756C134.479 49.6715 134.686 49.8219 134.923 49.9268C135.16 50.0361 135.41 50.0908 135.675 50.0908C135.935 50.0908 136.185 50.0361 136.427 49.9268C136.664 49.8174 136.871 49.667 137.049 49.4756C137.227 49.2796 137.368 49.0426 137.473 48.7646C137.582 48.4912 137.637 48.1859 137.637 47.8486C137.637 47.5114 137.582 47.2061 137.473 46.9326C137.363 46.6592 137.222 46.4245 137.049 46.2285C136.871 46.0326 136.664 45.8799 136.427 45.7705C136.19 45.6611 135.939 45.6087 135.675 45.6133C135.415 45.6133 135.164 45.6657 134.923 45.7705C134.686 45.8799 134.479 46.0326 134.301 46.2285C134.123 46.4245 133.982 46.6592 133.877 46.9326C133.768 47.2061 133.713 47.5114 133.713 47.8486ZM133.856 45.4014C133.989 45.2601 134.146 45.1348 134.328 45.0254C134.488 44.9206 134.684 44.8294 134.916 44.752C135.148 44.6745 135.424 44.6335 135.743 44.6289C136.144 44.6289 136.525 44.7087 136.885 44.8682C137.245 45.0277 137.557 45.2487 137.821 45.5312C138.086 45.8138 138.295 46.1533 138.45 46.5498C138.605 46.9417 138.683 47.3747 138.683 47.8486C138.683 48.3226 138.605 48.7578 138.45 49.1543C138.295 49.5462 138.086 49.8835 137.821 50.166C137.557 50.4486 137.245 50.6696 136.885 50.8291C136.525 50.9886 136.144 51.0684 135.743 51.0684C135.424 51.0684 135.148 51.0251 134.916 50.9385C134.684 50.8519 134.488 50.7562 134.328 50.6514C134.141 50.5283 133.984 50.387 133.856 50.2275V53.2422H132.804V44.6973H133.576L133.856 45.4014ZM140.706 47.8486C140.706 48.1859 140.758 48.4912 140.863 48.7646C140.968 49.0381 141.107 49.2751 141.28 49.4756C141.458 49.6715 141.661 49.8219 141.889 49.9268C142.117 50.0361 142.354 50.0908 142.6 50.0908C142.841 50.0908 143.076 50.0361 143.304 49.9268C143.532 49.8174 143.732 49.667 143.905 49.4756C144.078 49.2796 144.22 49.0426 144.329 48.7646C144.438 48.4912 144.491 48.1859 144.486 47.8486C144.486 47.5114 144.434 47.2061 144.329 46.9326C144.22 46.6592 144.078 46.4245 143.905 46.2285C143.732 46.0326 143.532 45.8799 143.304 45.7705C143.076 45.6611 142.841 45.6087 142.6 45.6133C142.358 45.6133 142.121 45.6657 141.889 45.7705C141.661 45.8799 141.458 46.0326 141.28 46.2285C141.103 46.4245 140.964 46.6592 140.863 46.9326C140.758 47.2061 140.706 47.5114 140.706 47.8486ZM145.539 47.8486C145.539 48.3226 145.462 48.7578 145.307 49.1543C145.152 49.5462 144.942 49.8835 144.678 50.166C144.413 50.4486 144.101 50.6696 143.741 50.8291C143.381 50.9886 143.001 51.0684 142.6 51.0684C142.199 51.0684 141.818 50.9886 141.458 50.8291C141.098 50.6696 140.786 50.4486 140.521 50.166C140.257 49.8835 140.045 49.5462 139.886 49.1543C139.731 48.7624 139.656 48.3271 139.66 47.8486C139.66 47.3747 139.735 46.9417 139.886 46.5498C140.041 46.1579 140.253 45.8184 140.521 45.5312C140.786 45.2487 141.098 45.0277 141.458 44.8682C141.818 44.7087 142.199 44.6289 142.6 44.6289C143.001 44.6289 143.381 44.7087 143.741 44.8682C144.101 45.0277 144.413 45.2487 144.678 45.5312C144.942 45.8138 145.152 46.1533 145.307 46.5498C145.462 46.9417 145.539 47.3747 145.539 47.8486ZM149.463 45.6133C149.221 45.6133 148.984 45.6657 148.752 45.7705C148.524 45.8799 148.321 46.0326 148.144 46.2285C147.966 46.4245 147.827 46.6592 147.727 46.9326C147.622 47.2061 147.569 47.5114 147.569 47.8486C147.569 48.1859 147.622 48.4912 147.727 48.7646C147.831 49.0381 147.97 49.2751 148.144 49.4756C148.321 49.6715 148.524 49.8219 148.752 49.9268C148.98 50.0361 149.217 50.0908 149.463 50.0908C149.668 50.0908 149.862 50.0521 150.044 49.9746C150.226 49.9017 150.388 49.8037 150.529 49.6807C150.675 49.5576 150.8 49.4186 150.905 49.2637C151.01 49.1042 151.09 48.9355 151.145 48.7578H152.19C152.118 49.0768 152.001 49.3753 151.842 49.6533C151.682 49.9313 151.484 50.1774 151.247 50.3916C151.01 50.6012 150.739 50.7676 150.434 50.8906C150.128 51.0137 149.805 51.0729 149.463 51.0684C149.062 51.0684 148.681 50.9886 148.321 50.8291C147.961 50.6696 147.649 50.4486 147.385 50.166C147.12 49.8835 146.909 49.5462 146.749 49.1543C146.594 48.7624 146.519 48.3271 146.523 47.8486C146.523 47.3747 146.599 46.9417 146.749 46.5498C146.904 46.1579 147.116 45.8184 147.385 45.5312C147.649 45.2487 147.961 45.0277 148.321 44.8682C148.681 44.7087 149.062 44.6289 149.463 44.6289C149.809 44.6289 150.133 44.6904 150.434 44.8135C150.739 44.9365 151.01 45.1006 151.247 45.3057C151.484 45.5153 151.682 45.7614 151.842 46.0439C152.001 46.3219 152.118 46.6204 152.19 46.9395H151.145C151.09 46.7617 151.01 46.5931 150.905 46.4336C150.8 46.2741 150.675 46.1351 150.529 46.0166C150.383 45.8936 150.222 45.7956 150.044 45.7227C149.862 45.6497 149.668 45.6133 149.463 45.6133ZM160.168 44.6973V51H159.115V44.6973H160.168ZM155.971 46.9395C156.641 46.9395 157.169 47.1286 157.557 47.5068C157.944 47.8851 158.138 48.3727 158.138 48.9697C158.138 49.5667 157.944 50.0544 157.557 50.4326C157.169 50.8109 156.641 51 155.971 51H153.517V44.6973H154.569V46.9395H155.971ZM155.971 50.0225C156.29 50.0225 156.554 49.9176 156.764 49.708C156.978 49.4938 157.085 49.2477 157.085 48.9697C157.085 48.6917 156.978 48.4479 156.764 48.2383C156.549 48.0241 156.285 47.917 155.971 47.917H154.569V50.0225H155.971Z" fill="#F4F5F7"/>
</svg>
