<svg width="182" height="44" viewBox="0 0 182 44" fill="none" xmlns="http://www.w3.org/2000/svg">
<path d="M32.0781 8.96094C32.0781 9.5026 32.1719 10.0026 32.3594 10.4609C32.5469 10.9193 32.7917 11.3177 33.0938 11.6562C33.401 11.9896 33.75 12.25 34.1406 12.4375C34.5365 12.625 34.9427 12.7188 35.3594 12.7188C35.7448 12.7188 36.0911 12.6641 36.3984 12.5547C36.7109 12.4401 36.9844 12.2839 37.2188 12.0859C37.4531 11.888 37.6458 11.6589 37.7969 11.3984C37.9531 11.138 38.0729 10.8594 38.1562 10.5625H39.7578C39.638 11.0417 39.4505 11.4948 39.1953 11.9219C38.9401 12.349 38.6224 12.724 38.2422 13.0469C37.8672 13.3646 37.4375 13.6172 36.9531 13.8047C36.4688 13.987 35.9375 14.0781 35.3594 14.0781C34.7188 14.0781 34.1068 13.9479 33.5234 13.6875C32.9453 13.4271 32.4375 13.0651 32 12.6016C31.5625 12.138 31.2135 11.5964 30.9531 10.9766C30.6927 10.3568 30.5625 9.6849 30.5625 8.96094C30.5625 8.2474 30.6927 7.57812 30.9531 6.95312C31.2135 6.32812 31.5625 5.78385 32 5.32031C32.4375 4.85677 32.9453 4.49479 33.5234 4.23438C34.1068 3.97396 34.7188 3.84375 35.3594 3.84375C35.9115 3.84375 36.4271 3.9375 36.9062 4.125C37.3906 4.30729 37.8151 4.5599 38.1797 4.88281C38.5495 5.20052 38.862 5.57292 39.1172 6C39.3776 6.42708 39.5651 6.88021 39.6797 7.35938H38.0781C37.9948 7.0625 37.875 6.78385 37.7188 6.52344C37.5625 6.25781 37.3698 6.02865 37.1406 5.83594C36.9115 5.63802 36.6484 5.48438 36.3516 5.375C36.0547 5.26042 35.724 5.20312 35.3594 5.20312C34.9427 5.20312 34.5365 5.29688 34.1406 5.48438C33.75 5.66667 33.401 5.92708 33.0938 6.26562C32.7917 6.59896 32.5469 6.9974 32.3594 7.46094C32.1719 7.91927 32.0781 8.41927 32.0781 8.96094ZM47.2812 11.9219C47.1615 12.2188 47.0104 12.4974 46.8281 12.7578C46.6458 13.0182 46.4271 13.2474 46.1719 13.4453C45.9167 13.6432 45.6198 13.7995 45.2812 13.9141C44.9479 14.0234 44.5729 14.0781 44.1562 14.0781C43.6771 14.0781 43.2292 13.9896 42.8125 13.8125C42.3958 13.6302 42.0312 13.3776 41.7188 13.0547C41.4062 12.7266 41.1615 12.3385 40.9844 11.8906C40.8073 11.4427 40.7188 10.9453 40.7188 10.3984C40.7188 9.85677 40.8073 9.36198 40.9844 8.91406C41.1615 8.46615 41.401 8.08073 41.7031 7.75781C42.0052 7.42969 42.362 7.17448 42.7734 6.99219C43.1849 6.8099 43.6198 6.71875 44.0781 6.71875C44.5365 6.71875 44.9714 6.8099 45.3828 6.99219C45.7943 7.17448 46.151 7.42969 46.4531 7.75781C46.7552 8.08073 46.9948 8.46615 47.1719 8.91406C47.349 9.36198 47.4375 9.85677 47.4375 10.3984C47.4375 10.4818 47.4323 10.5651 47.4219 10.6484C47.4115 10.7266 47.401 10.7943 47.3906 10.8516C47.3802 10.9245 47.3698 10.987 47.3594 11.0391H42.2344C42.2552 11.263 42.3203 11.4766 42.4297 11.6797C42.5391 11.8828 42.6745 12.0625 42.8359 12.2188C43.0026 12.3698 43.2005 12.4922 43.4297 12.5859C43.6589 12.6745 43.901 12.7188 44.1562 12.7188C44.5938 12.7188 44.9401 12.625 45.1953 12.4375C45.4557 12.25 45.6432 12.0781 45.7578 11.9219H47.2812ZM44.0781 8.07812C43.599 8.07812 43.1927 8.24219 42.8594 8.57031C42.5312 8.89323 42.3229 9.31771 42.2344 9.84375H46.0781C45.9948 9.32292 45.7812 8.89844 45.4375 8.57031C45.099 8.24219 44.6458 8.07812 44.0781 8.07812ZM52.3984 6.71875C52.8776 6.71875 53.3255 6.8099 53.7422 6.99219C54.1589 7.17448 54.5234 7.42969 54.8359 7.75781C55.1536 8.08073 55.401 8.46615 55.5781 8.91406C55.7552 9.36198 55.8438 9.85677 55.8438 10.3984C55.8438 10.9401 55.7552 11.4375 55.5781 11.8906C55.401 12.3385 55.1536 12.7266 54.8359 13.0547C54.5234 13.3776 54.1589 13.6302 53.7422 13.8125C53.3255 13.9896 52.8776 14.0781 52.3984 14.0781C52.0547 14.0781 51.7604 14.0391 51.5156 13.9609C51.2708 13.8828 51.0651 13.7891 50.8984 13.6797C50.7057 13.5599 50.5391 13.4271 50.3984 13.2812V16.5625H48.9609V6.79688H50L50.3203 7.52344C50.4609 7.3724 50.625 7.23698 50.8125 7.11719C50.9844 7.02344 51.2005 6.9349 51.4609 6.85156C51.7214 6.76302 52.0339 6.71875 52.3984 6.71875ZM52.3203 12.7188C52.5964 12.7188 52.8594 12.6641 53.1094 12.5547C53.3594 12.4401 53.5807 12.2786 53.7734 12.0703C53.9661 11.862 54.1172 11.6172 54.2266 11.3359C54.3411 11.0547 54.3984 10.7422 54.3984 10.3984C54.3984 10.0547 54.3411 9.74219 54.2266 9.46094C54.1172 9.17969 53.9661 8.9349 53.7734 8.72656C53.5807 8.51823 53.3594 8.35938 53.1094 8.25C52.8594 8.13542 52.5964 8.07812 52.3203 8.07812C52.0443 8.07812 51.7786 8.13542 51.5234 8.25C51.2734 8.35938 51.0521 8.51823 50.8594 8.72656C50.6719 8.9349 50.5208 9.18229 50.4062 9.46875C50.2969 9.75 50.2422 10.0599 50.2422 10.3984C50.2422 10.7422 50.2969 11.0547 50.4062 11.3359C50.5208 11.6172 50.6719 11.862 50.8594 12.0703C51.0521 12.2786 51.2734 12.4401 51.5234 12.5547C51.7786 12.6641 52.0443 12.7188 52.3203 12.7188ZM62.0859 10.2422C62.2786 10.3359 62.4505 10.4635 62.6016 10.625C62.7318 10.7656 62.8516 10.9427 62.9609 11.1562C63.0703 11.3646 63.125 11.6198 63.125 11.9219C63.125 12.2188 63.0703 12.4948 62.9609 12.75C62.8568 13.0052 62.7109 13.224 62.5234 13.4062C62.3411 13.5885 62.1146 13.7344 61.8438 13.8438C61.5781 13.9479 61.2865 14 60.9688 14H57.3672V6.79688H60.7266C61.0443 6.79688 61.3359 6.84896 61.6016 6.95312C61.8724 7.05208 62.099 7.19271 62.2812 7.375C62.4688 7.55729 62.6146 7.77083 62.7188 8.01562C62.8281 8.26042 62.8828 8.52083 62.8828 8.79688C62.8828 9.0625 62.8411 9.28385 62.7578 9.46094C62.6745 9.63802 62.5833 9.78646 62.4844 9.90625C62.3698 10.0365 62.237 10.1484 62.0859 10.2422ZM58.8047 8V9.75781H60.5625C60.8073 9.75781 61.0156 9.67448 61.1875 9.50781C61.3594 9.33594 61.4453 9.1276 61.4453 8.88281C61.4453 8.63802 61.3594 8.42969 61.1875 8.25781C61.0208 8.08594 60.8125 8 60.5625 8H58.8047ZM60.8047 12.7969C61.0495 12.7969 61.2578 12.7083 61.4297 12.5312C61.6016 12.349 61.6875 12.1198 61.6875 11.8438C61.6875 11.599 61.6016 11.3906 61.4297 11.2188C61.2578 11.0469 61.0495 10.9609 60.8047 10.9609H58.8047V12.7969H60.8047ZM70.9688 6.79688V14H69.5312V8.96094L66.0859 14H64.6484V6.79688H66.0859V11.8438L69.5312 6.79688H70.9688ZM79.125 11.3594C79.0417 11.7448 78.9089 12.1042 78.7266 12.4375C78.5443 12.7656 78.3125 13.0521 78.0312 13.2969C77.7552 13.5417 77.4375 13.7344 77.0781 13.875C76.724 14.0104 76.3385 14.0781 75.9219 14.0781C75.4427 14.0781 74.9948 13.9896 74.5781 13.8125C74.1615 13.6302 73.7943 13.3776 73.4766 13.0547C73.1641 12.7266 72.9193 12.3385 72.7422 11.8906C72.5703 11.4427 72.4844 10.9453 72.4844 10.3984C72.4844 9.85677 72.5703 9.36198 72.7422 8.91406C72.9193 8.46615 73.1641 8.08073 73.4766 7.75781C73.7943 7.42969 74.1615 7.17448 74.5781 6.99219C74.9948 6.8099 75.4427 6.71875 75.9219 6.71875C76.3385 6.71875 76.724 6.78906 77.0781 6.92969C77.4375 7.0651 77.7552 7.25781 78.0312 7.50781C78.3125 7.7526 78.5417 8.04167 78.7188 8.375C78.901 8.70312 79.0365 9.05729 79.125 9.4375H77.6016C77.4818 9.03125 77.2839 8.70312 77.0078 8.45312C76.7318 8.20312 76.3698 8.07812 75.9219 8.07812C75.6667 8.07812 75.4167 8.13542 75.1719 8.25C74.9271 8.35938 74.7135 8.51823 74.5312 8.72656C74.349 8.9349 74.2005 9.18229 74.0859 9.46875C73.9766 9.75 73.9219 10.0599 73.9219 10.3984C73.9219 10.7422 73.9766 11.0547 74.0859 11.3359C74.2005 11.6172 74.349 11.862 74.5312 12.0703C74.7135 12.2786 74.9271 12.4401 75.1719 12.5547C75.4167 12.6641 75.6667 12.7188 75.9219 12.7188C76.3698 12.7188 76.7318 12.5938 77.0078 12.3438C77.2891 12.0938 77.487 11.7656 77.6016 11.3594H79.125ZM87.5234 6.71875C88.0026 6.71875 88.4505 6.8099 88.8672 6.99219C89.2839 7.17448 89.6484 7.42969 89.9609 7.75781C90.2786 8.08073 90.526 8.46615 90.7031 8.91406C90.8802 9.36198 90.9688 9.85677 90.9688 10.3984C90.9688 10.9401 90.8802 11.4375 90.7031 11.8906C90.526 12.3385 90.2786 12.7266 89.9609 13.0547C89.6484 13.3776 89.2839 13.6302 88.8672 13.8125C88.4505 13.9896 88.0026 14.0781 87.5234 14.0781C87.1797 14.0781 86.8854 14.0391 86.6406 13.9609C86.3958 13.8828 86.1901 13.7891 86.0234 13.6797C85.8307 13.5599 85.6641 13.4271 85.5234 13.2812V16.5625H84.0859V6.79688H85.125L85.4453 7.52344C85.5859 7.3724 85.75 7.23698 85.9375 7.11719C86.1094 7.02344 86.3255 6.9349 86.5859 6.85156C86.8464 6.76302 87.1589 6.71875 87.5234 6.71875ZM87.4453 12.7188C87.7214 12.7188 87.9844 12.6641 88.2344 12.5547C88.4844 12.4401 88.7057 12.2786 88.8984 12.0703C89.0911 11.862 89.2422 11.6172 89.3516 11.3359C89.4661 11.0547 89.5234 10.7422 89.5234 10.3984C89.5234 10.0547 89.4661 9.74219 89.3516 9.46094C89.2422 9.17969 89.0911 8.9349 88.8984 8.72656C88.7057 8.51823 88.4844 8.35938 88.2344 8.25C87.9844 8.13542 87.7214 8.07812 87.4453 8.07812C87.1693 8.07812 86.9036 8.13542 86.6484 8.25C86.3984 8.35938 86.1771 8.51823 85.9844 8.72656C85.7969 8.9349 85.6458 9.18229 85.5312 9.46875C85.4219 9.75 85.3672 10.0599 85.3672 10.3984C85.3672 10.7422 85.4219 11.0547 85.5312 11.3359C85.6458 11.6172 85.7969 11.862 85.9844 12.0703C86.1771 12.2786 86.3984 12.4401 86.6484 12.5547C86.9036 12.6641 87.1693 12.7188 87.4453 12.7188ZM95.2891 6.71875C95.7057 6.71875 96.0859 6.78646 96.4297 6.92188C96.7786 7.05208 97.0755 7.23177 97.3203 7.46094C97.5651 7.6901 97.7552 7.96094 97.8906 8.27344C98.026 8.58073 98.0938 8.91667 98.0938 9.28125V14H97.0547L96.7344 13.2812C96.5938 13.4323 96.4271 13.5651 96.2344 13.6797C96.0625 13.7839 95.8464 13.8776 95.5859 13.9609C95.3255 14.0391 95.013 14.0781 94.6484 14.0781C93.8464 14.0781 93.2318 13.8802 92.8047 13.4844C92.3828 13.0833 92.1719 12.5625 92.1719 11.9219C92.1719 11.5573 92.2396 11.2292 92.375 10.9375C92.5156 10.6406 92.7526 10.3906 93.0859 10.1875C93.4245 9.97917 93.8802 9.81771 94.4531 9.70312C95.0312 9.58333 95.763 9.52344 96.6484 9.52344V9.28125C96.6484 8.91667 96.5339 8.625 96.3047 8.40625C96.0755 8.1875 95.737 8.07812 95.2891 8.07812C94.8099 8.07812 94.4609 8.16406 94.2422 8.33594C94.0234 8.50781 93.8932 8.71615 93.8516 8.96094H92.4141C92.4557 8.32031 92.724 7.78646 93.2188 7.35938C93.7135 6.93229 94.4036 6.71875 95.2891 6.71875ZM94.7344 12.7969C95.3438 12.7969 95.8151 12.6406 96.1484 12.3281C96.4818 12.0156 96.6484 11.6354 96.6484 11.1875V10.7969C96.0078 10.7969 95.4896 10.8281 95.0938 10.8906C94.7031 10.9479 94.3958 11.0286 94.1719 11.1328C93.9479 11.2318 93.7969 11.3568 93.7188 11.5078C93.6458 11.6536 93.6094 11.8177 93.6094 12C93.6094 12.2031 93.7057 12.388 93.8984 12.5547C94.0911 12.7161 94.3698 12.7969 94.7344 12.7969ZM103.289 7.03906C103.727 7.03906 104.146 7.13021 104.547 7.3125C104.948 7.49479 105.297 7.74479 105.594 8.0625C105.891 8.375 106.128 8.74479 106.305 9.17188C106.482 9.59375 106.57 10.0573 106.57 10.5625C106.57 11.0625 106.482 11.526 106.305 11.9531C106.128 12.3802 105.88 12.7526 105.562 13.0703C105.25 13.3828 104.885 13.6302 104.469 13.8125C104.057 13.9896 103.609 14.0781 103.125 14.0781C102.625 14.0781 102.161 13.987 101.734 13.8047C101.307 13.6172 100.938 13.3333 100.625 12.9531C100.312 12.5729 100.065 12.1042 99.8828 11.5469C99.7005 10.9844 99.6094 10.3359 99.6094 9.60156C99.6094 8.5651 99.7135 7.6849 99.9219 6.96094C100.13 6.23698 100.471 5.64583 100.945 5.1875C101.419 4.72396 102.042 4.38021 102.812 4.15625C103.589 3.93229 104.547 3.79948 105.688 3.75781V5.20312C104.823 5.22396 104.109 5.29688 103.547 5.42188C102.99 5.54167 102.542 5.72135 102.203 5.96094C101.87 6.20052 101.622 6.5026 101.461 6.86719C101.305 7.22656 101.193 7.65625 101.125 8.15625C101.266 7.95312 101.438 7.76823 101.641 7.60156C101.823 7.46094 102.047 7.33333 102.312 7.21875C102.578 7.09896 102.904 7.03906 103.289 7.03906ZM103.125 12.7188C103.38 12.7188 103.63 12.6641 103.875 12.5547C104.125 12.4401 104.339 12.2839 104.516 12.0859C104.698 11.888 104.844 11.6589 104.953 11.3984C105.068 11.138 105.125 10.8594 105.125 10.5625C105.125 10.2656 105.068 9.98698 104.953 9.72656C104.844 9.46094 104.698 9.22917 104.516 9.03125C104.339 8.83333 104.128 8.67969 103.883 8.57031C103.638 8.45573 103.385 8.39844 103.125 8.39844C102.87 8.39844 102.62 8.45573 102.375 8.57031C102.13 8.67969 101.917 8.83333 101.734 9.03125C101.552 9.22917 101.404 9.45833 101.289 9.71875C101.18 9.97917 101.125 10.2604 101.125 10.5625C101.125 10.8594 101.18 11.138 101.289 11.3984C101.404 11.6589 101.552 11.888 101.734 12.0859C101.917 12.2839 102.13 12.4401 102.375 12.5547C102.62 12.6641 102.87 12.7188 103.125 12.7188ZM113.125 10.3984C113.125 10.0547 113.068 9.74219 112.953 9.46094C112.844 9.17969 112.698 8.9349 112.516 8.72656C112.333 8.51823 112.12 8.35938 111.875 8.25C111.63 8.13542 111.38 8.07812 111.125 8.07812C110.87 8.07812 110.62 8.13542 110.375 8.25C110.13 8.35938 109.917 8.51823 109.734 8.72656C109.552 8.9349 109.404 9.18229 109.289 9.46875C109.18 9.75 109.125 10.0599 109.125 10.3984C109.125 10.7422 109.18 11.0547 109.289 11.3359C109.404 11.6172 109.552 11.862 109.734 12.0703C109.917 12.2786 110.13 12.4401 110.375 12.5547C110.62 12.6641 110.87 12.7188 111.125 12.7188C111.38 12.7188 111.63 12.6641 111.875 12.5547C112.12 12.4401 112.333 12.2786 112.516 12.0703C112.698 11.862 112.844 11.6172 112.953 11.3359C113.068 11.0547 113.125 10.7422 113.125 10.3984ZM114.562 10.3984C114.562 10.9401 114.474 11.4375 114.297 11.8906C114.125 12.3385 113.88 12.7266 113.562 13.0547C113.25 13.3776 112.885 13.6302 112.469 13.8125C112.052 13.9896 111.604 14.0781 111.125 14.0781C110.646 14.0781 110.198 13.9896 109.781 13.8125C109.365 13.6302 108.997 13.3776 108.68 13.0547C108.367 12.7266 108.122 12.3385 107.945 11.8906C107.773 11.4427 107.688 10.9453 107.688 10.3984C107.688 9.85677 107.773 9.36198 107.945 8.91406C108.122 8.46615 108.367 8.08073 108.68 7.75781C108.997 7.42969 109.365 7.17448 109.781 6.99219C110.198 6.8099 110.646 6.71875 111.125 6.71875C111.604 6.71875 112.052 6.8099 112.469 6.99219C112.885 7.17448 113.25 7.42969 113.562 7.75781C113.88 8.08073 114.125 8.46615 114.297 8.91406C114.474 9.36198 114.562 9.85677 114.562 10.3984ZM115.211 6.79688H121.125V8.15625H118.891V14H117.445V8.15625H115.211V6.79688ZM125.055 6.71875C125.471 6.71875 125.852 6.78646 126.195 6.92188C126.544 7.05208 126.841 7.23177 127.086 7.46094C127.331 7.6901 127.521 7.96094 127.656 8.27344C127.792 8.58073 127.859 8.91667 127.859 9.28125V14H126.82L126.5 13.2812C126.359 13.4323 126.193 13.5651 126 13.6797C125.828 13.7839 125.612 13.8776 125.352 13.9609C125.091 14.0391 124.779 14.0781 124.414 14.0781C123.612 14.0781 122.997 13.8802 122.57 13.4844C122.148 13.0833 121.938 12.5625 121.938 11.9219C121.938 11.5573 122.005 11.2292 122.141 10.9375C122.281 10.6406 122.518 10.3906 122.852 10.1875C123.19 9.97917 123.646 9.81771 124.219 9.70312C124.797 9.58333 125.529 9.52344 126.414 9.52344V9.28125C126.414 8.91667 126.299 8.625 126.07 8.40625C125.841 8.1875 125.503 8.07812 125.055 8.07812C124.576 8.07812 124.227 8.16406 124.008 8.33594C123.789 8.50781 123.659 8.71615 123.617 8.96094H122.18C122.221 8.32031 122.49 7.78646 122.984 7.35938C123.479 6.93229 124.169 6.71875 125.055 6.71875ZM124.5 12.7969C125.109 12.7969 125.581 12.6406 125.914 12.3281C126.247 12.0156 126.414 11.6354 126.414 11.1875V10.7969C125.773 10.7969 125.255 10.8281 124.859 10.8906C124.469 10.9479 124.161 11.0286 123.938 11.1328C123.714 11.2318 123.562 11.3568 123.484 11.5078C123.411 11.6536 123.375 11.8177 123.375 12C123.375 12.2031 123.471 12.388 123.664 12.5547C123.857 12.7161 124.135 12.7969 124.5 12.7969ZM135.938 11.9219C135.818 12.2188 135.667 12.4974 135.484 12.7578C135.302 13.0182 135.083 13.2474 134.828 13.4453C134.573 13.6432 134.276 13.7995 133.938 13.9141C133.604 14.0234 133.229 14.0781 132.812 14.0781C132.333 14.0781 131.885 13.9896 131.469 13.8125C131.052 13.6302 130.688 13.3776 130.375 13.0547C130.062 12.7266 129.818 12.3385 129.641 11.8906C129.464 11.4427 129.375 10.9453 129.375 10.3984C129.375 9.85677 129.464 9.36198 129.641 8.91406C129.818 8.46615 130.057 8.08073 130.359 7.75781C130.661 7.42969 131.018 7.17448 131.43 6.99219C131.841 6.8099 132.276 6.71875 132.734 6.71875C133.193 6.71875 133.628 6.8099 134.039 6.99219C134.451 7.17448 134.807 7.42969 135.109 7.75781C135.411 8.08073 135.651 8.46615 135.828 8.91406C136.005 9.36198 136.094 9.85677 136.094 10.3984C136.094 10.4818 136.089 10.5651 136.078 10.6484C136.068 10.7266 136.057 10.7943 136.047 10.8516C136.036 10.9245 136.026 10.987 136.016 11.0391H130.891C130.911 11.263 130.977 11.4766 131.086 11.6797C131.195 11.8828 131.331 12.0625 131.492 12.2188C131.659 12.3698 131.857 12.4922 132.086 12.5859C132.315 12.6745 132.557 12.7188 132.812 12.7188C133.25 12.7188 133.596 12.625 133.852 12.4375C134.112 12.25 134.299 12.0781 134.414 11.9219H135.938ZM132.734 8.07812C132.255 8.07812 131.849 8.24219 131.516 8.57031C131.188 8.89323 130.979 9.31771 130.891 9.84375H134.734C134.651 9.32292 134.438 8.89844 134.094 8.57031C133.755 8.24219 133.302 8.07812 132.734 8.07812ZM136.82 6.79688H142.734V8.15625H140.5V14H139.055V8.15625H136.82V6.79688ZM152.18 10.2422C152.372 10.3359 152.544 10.4635 152.695 10.625C152.826 10.7656 152.945 10.9427 153.055 11.1562C153.164 11.3646 153.219 11.6198 153.219 11.9219C153.219 12.2188 153.164 12.4948 153.055 12.75C152.951 13.0052 152.805 13.224 152.617 13.4062C152.435 13.5885 152.208 13.7344 151.938 13.8438C151.672 13.9479 151.38 14 151.062 14H147.461V6.79688H150.82C151.138 6.79688 151.43 6.84896 151.695 6.95312C151.966 7.05208 152.193 7.19271 152.375 7.375C152.562 7.55729 152.708 7.77083 152.812 8.01562C152.922 8.26042 152.977 8.52083 152.977 8.79688C152.977 9.0625 152.935 9.28385 152.852 9.46094C152.768 9.63802 152.677 9.78646 152.578 9.90625C152.464 10.0365 152.331 10.1484 152.18 10.2422ZM148.898 8V9.75781H150.656C150.901 9.75781 151.109 9.67448 151.281 9.50781C151.453 9.33594 151.539 9.1276 151.539 8.88281C151.539 8.63802 151.453 8.42969 151.281 8.25781C151.115 8.08594 150.906 8 150.656 8H148.898ZM150.898 12.7969C151.143 12.7969 151.352 12.7083 151.523 12.5312C151.695 12.349 151.781 12.1198 151.781 11.8438C151.781 11.599 151.695 11.3906 151.523 11.2188C151.352 11.0469 151.143 10.9609 150.898 10.9609H148.898V12.7969H150.898ZM36 32.3984C36 32.0547 35.9427 31.7422 35.8281 31.4609C35.7188 31.1797 35.5729 30.9349 35.3906 30.7266C35.2083 30.5182 34.9948 30.3594 34.75 30.25C34.5052 30.1354 34.2552 30.0781 34 30.0781C33.7448 30.0781 33.4948 30.1354 33.25 30.25C33.0052 30.3594 32.7917 30.5182 32.6094 30.7266C32.4271 30.9349 32.2786 31.1823 32.1641 31.4688C32.0547 31.75 32 32.0599 32 32.3984C32 32.7422 32.0547 33.0547 32.1641 33.3359C32.2786 33.6172 32.4271 33.862 32.6094 34.0703C32.7917 34.2786 33.0052 34.4401 33.25 34.5547C33.4948 34.6641 33.7448 34.7188 34 34.7188C34.2552 34.7188 34.5052 34.6641 34.75 34.5547C34.9948 34.4401 35.2083 34.2786 35.3906 34.0703C35.5729 33.862 35.7188 33.6172 35.8281 33.3359C35.9427 33.0547 36 32.7422 36 32.3984ZM37.4375 32.3984C37.4375 32.9401 37.349 33.4375 37.1719 33.8906C37 34.3385 36.7552 34.7266 36.4375 35.0547C36.125 35.3776 35.7604 35.6302 35.3438 35.8125C34.9271 35.9896 34.4792 36.0781 34 36.0781C33.5208 36.0781 33.0729 35.9896 32.6562 35.8125C32.2396 35.6302 31.8724 35.3776 31.5547 35.0547C31.2422 34.7266 30.9974 34.3385 30.8203 33.8906C30.6484 33.4427 30.5625 32.9453 30.5625 32.3984C30.5625 31.8568 30.6484 31.362 30.8203 30.9141C30.9974 30.4661 31.2422 30.0807 31.5547 29.7578C31.8724 29.4297 32.2396 29.1745 32.6562 28.9922C33.0729 28.8099 33.5208 28.7188 34 28.7188C34.4792 28.7188 34.9271 28.8099 35.3438 28.9922C35.7604 29.1745 36.125 29.4297 36.4375 29.7578C36.7552 30.0807 37 30.4661 37.1719 30.9141C37.349 31.362 37.4375 31.8568 37.4375 32.3984ZM42.3203 29.0391C42.7578 29.0391 43.1771 29.1302 43.5781 29.3125C43.9792 29.4948 44.3281 29.7448 44.625 30.0625C44.9219 30.375 45.1589 30.7448 45.3359 31.1719C45.513 31.5938 45.6016 32.0573 45.6016 32.5625C45.6016 33.0625 45.513 33.526 45.3359 33.9531C45.1589 34.3802 44.9115 34.7526 44.5938 35.0703C44.2812 35.3828 43.9167 35.6302 43.5 35.8125C43.0885 35.9896 42.6406 36.0781 42.1562 36.0781C41.6562 36.0781 41.1927 35.987 40.7656 35.8047C40.3385 35.6172 39.9688 35.3333 39.6562 34.9531C39.3438 34.5729 39.0964 34.1042 38.9141 33.5469C38.7318 32.9844 38.6406 32.3359 38.6406 31.6016C38.6406 30.5651 38.7448 29.6849 38.9531 28.9609C39.1615 28.237 39.5026 27.6458 39.9766 27.1875C40.4505 26.724 41.0729 26.3802 41.8438 26.1562C42.6198 25.9323 43.5781 25.7995 44.7188 25.7578V27.2031C43.8542 27.224 43.1406 27.2969 42.5781 27.4219C42.0208 27.5417 41.5729 27.7214 41.2344 27.9609C40.901 28.2005 40.6536 28.5026 40.4922 28.8672C40.3359 29.2266 40.224 29.6562 40.1562 30.1562C40.2969 29.9531 40.4688 29.7682 40.6719 29.6016C40.8542 29.4609 41.0781 29.3333 41.3438 29.2188C41.6094 29.099 41.9349 29.0391 42.3203 29.0391ZM42.1562 34.7188C42.4115 34.7188 42.6615 34.6641 42.9062 34.5547C43.1562 34.4401 43.3698 34.2839 43.5469 34.0859C43.7292 33.888 43.875 33.6589 43.9844 33.3984C44.099 33.138 44.1562 32.8594 44.1562 32.5625C44.1562 32.2656 44.099 31.987 43.9844 31.7266C43.875 31.4609 43.7292 31.2292 43.5469 31.0312C43.3698 30.8333 43.1589 30.6797 42.9141 30.5703C42.6693 30.4557 42.4167 30.3984 42.1562 30.3984C41.901 30.3984 41.651 30.4557 41.4062 30.5703C41.1615 30.6797 40.9479 30.8333 40.7656 31.0312C40.5833 31.2292 40.4349 31.4583 40.3203 31.7188C40.2109 31.9792 40.1562 32.2604 40.1562 32.5625C40.1562 32.8594 40.2109 33.138 40.3203 33.3984C40.4349 33.6589 40.5833 33.888 40.7656 34.0859C40.9479 34.2839 41.1615 34.4401 41.4062 34.5547C41.651 34.6641 41.901 34.7188 42.1562 34.7188ZM55.0391 28.7969V36H53.5938V28.7969H55.0391ZM50.1562 31.2031C50.5208 31.2031 50.8542 31.2656 51.1562 31.3906C51.4583 31.5104 51.7188 31.6771 51.9375 31.8906C52.1562 32.1042 52.3255 32.3568 52.4453 32.6484C52.5703 32.9401 52.6328 33.2578 52.6328 33.6016C52.6328 33.9453 52.5703 34.263 52.4453 34.5547C52.3255 34.8464 52.1562 35.099 51.9375 35.3125C51.7188 35.526 51.4583 35.6953 51.1562 35.8203C50.8542 35.9401 50.5208 36 50.1562 36H47.1172V28.7969H48.5547V31.2031H50.1562ZM50.1562 34.6406C50.4323 34.6406 50.6745 34.5365 50.8828 34.3281C51.0911 34.1198 51.1953 33.8776 51.1953 33.6016C51.1953 33.3255 51.0911 33.0833 50.8828 32.875C50.6745 32.6667 50.4323 32.5625 50.1562 32.5625H48.5547V34.6406H50.1562ZM62.7969 28.7969V36H61.3594V33.4375C61.1771 33.5312 60.9844 33.612 60.7812 33.6797C60.599 33.7422 60.3854 33.7995 60.1406 33.8516C59.8958 33.8984 59.6354 33.9219 59.3594 33.9219C58.974 33.9219 58.625 33.862 58.3125 33.7422C58 33.6172 57.7318 33.4375 57.5078 33.2031C57.2839 32.9688 57.1094 32.6927 56.9844 32.375C56.8594 32.0521 56.7969 31.6875 56.7969 31.2812V28.7969H58.2422V31.2812C58.2422 31.6875 58.3698 32.0156 58.625 32.2656C58.8802 32.5156 59.2318 32.6406 59.6797 32.6406C59.9245 32.6406 60.1484 32.6172 60.3516 32.5703C60.5547 32.5182 60.7318 32.4609 60.8828 32.3984C61.0651 32.3359 61.224 32.2552 61.3594 32.1562V28.7969H62.7969ZM71.0469 28.7969V36H69.6094V33.0391H66.1641V36H64.7266V28.7969H66.1641V31.6797H69.6094V28.7969H71.0469ZM78 32.3984C78 32.0547 77.9427 31.7422 77.8281 31.4609C77.7188 31.1797 77.5729 30.9349 77.3906 30.7266C77.2083 30.5182 76.9948 30.3594 76.75 30.25C76.5052 30.1354 76.2552 30.0781 76 30.0781C75.7448 30.0781 75.4948 30.1354 75.25 30.25C75.0052 30.3594 74.7917 30.5182 74.6094 30.7266C74.4271 30.9349 74.2786 31.1823 74.1641 31.4688C74.0547 31.75 74 32.0599 74 32.3984C74 32.7422 74.0547 33.0547 74.1641 33.3359C74.2786 33.6172 74.4271 33.862 74.6094 34.0703C74.7917 34.2786 75.0052 34.4401 75.25 34.5547C75.4948 34.6641 75.7448 34.7188 76 34.7188C76.2552 34.7188 76.5052 34.6641 76.75 34.5547C76.9948 34.4401 77.2083 34.2786 77.3906 34.0703C77.5729 33.862 77.7188 33.6172 77.8281 33.3359C77.9427 33.0547 78 32.7422 78 32.3984ZM79.4375 32.3984C79.4375 32.9401 79.349 33.4375 79.1719 33.8906C79 34.3385 78.7552 34.7266 78.4375 35.0547C78.125 35.3776 77.7604 35.6302 77.3438 35.8125C76.9271 35.9896 76.4792 36.0781 76 36.0781C75.5208 36.0781 75.0729 35.9896 74.6562 35.8125C74.2396 35.6302 73.8724 35.3776 73.5547 35.0547C73.2422 34.7266 72.9974 34.3385 72.8203 33.8906C72.6484 33.4427 72.5625 32.9453 72.5625 32.3984C72.5625 31.8568 72.6484 31.362 72.8203 30.9141C72.9974 30.4661 73.2422 30.0807 73.5547 29.7578C73.8724 29.4297 74.2396 29.1745 74.6562 28.9922C75.0729 28.8099 75.5208 28.7188 76 28.7188C76.4792 28.7188 76.9271 28.8099 77.3438 28.9922C77.7604 29.1745 78.125 29.4297 78.4375 29.7578C78.7552 30.0807 79 30.4661 79.1719 30.9141C79.349 31.362 79.4375 31.8568 79.4375 32.3984ZM84.3203 36L82.3984 32V36H80.9609V28.7969H82.2422L84.7969 34.0781L87.3594 28.7969H88.6406V36H87.2031V32L85.2812 36H84.3203ZM97.5078 28.7188C97.987 28.7188 98.4349 28.8099 98.8516 28.9922C99.2682 29.1745 99.6328 29.4297 99.9453 29.7578C100.263 30.0807 100.51 30.4661 100.688 30.9141C100.865 31.362 100.953 31.8568 100.953 32.3984C100.953 32.9401 100.865 33.4375 100.688 33.8906C100.51 34.3385 100.263 34.7266 99.9453 35.0547C99.6328 35.3776 99.2682 35.6302 98.8516 35.8125C98.4349 35.9896 97.987 36.0781 97.5078 36.0781C97.1641 36.0781 96.8698 36.0391 96.625 35.9609C96.3802 35.8828 96.1745 35.7891 96.0078 35.6797C95.8151 35.5599 95.6484 35.4271 95.5078 35.2812V38.5625H94.0703V28.7969H95.1094L95.4297 29.5234C95.5703 29.3724 95.7344 29.237 95.9219 29.1172C96.0938 29.0234 96.3099 28.9349 96.5703 28.8516C96.8307 28.763 97.1432 28.7188 97.5078 28.7188ZM97.4297 34.7188C97.7057 34.7188 97.9688 34.6641 98.2188 34.5547C98.4688 34.4401 98.6901 34.2786 98.8828 34.0703C99.0755 33.862 99.2266 33.6172 99.3359 33.3359C99.4505 33.0547 99.5078 32.7422 99.5078 32.3984C99.5078 32.0547 99.4505 31.7422 99.3359 31.4609C99.2266 31.1797 99.0755 30.9349 98.8828 30.7266C98.6901 30.5182 98.4688 30.3594 98.2188 30.25C97.9688 30.1354 97.7057 30.0781 97.4297 30.0781C97.1536 30.0781 96.888 30.1354 96.6328 30.25C96.3828 30.3594 96.1615 30.5182 95.9688 30.7266C95.7812 30.9349 95.6302 31.1823 95.5156 31.4688C95.4062 31.75 95.3516 32.0599 95.3516 32.3984C95.3516 32.7422 95.4062 33.0547 95.5156 33.3359C95.6302 33.6172 95.7812 33.862 95.9688 34.0703C96.1615 34.2786 96.3828 34.4401 96.6328 34.5547C96.888 34.6641 97.1536 34.7188 97.4297 34.7188ZM108.719 33.9219C108.599 34.2188 108.448 34.4974 108.266 34.7578C108.083 35.0182 107.865 35.2474 107.609 35.4453C107.354 35.6432 107.057 35.7995 106.719 35.9141C106.385 36.0234 106.01 36.0781 105.594 36.0781C105.115 36.0781 104.667 35.9896 104.25 35.8125C103.833 35.6302 103.469 35.3776 103.156 35.0547C102.844 34.7266 102.599 34.3385 102.422 33.8906C102.245 33.4427 102.156 32.9453 102.156 32.3984C102.156 31.8568 102.245 31.362 102.422 30.9141C102.599 30.4661 102.839 30.0807 103.141 29.7578C103.443 29.4297 103.799 29.1745 104.211 28.9922C104.622 28.8099 105.057 28.7188 105.516 28.7188C105.974 28.7188 106.409 28.8099 106.82 28.9922C107.232 29.1745 107.589 29.4297 107.891 29.7578C108.193 30.0807 108.432 30.4661 108.609 30.9141C108.786 31.362 108.875 31.8568 108.875 32.3984C108.875 32.4818 108.87 32.5651 108.859 32.6484C108.849 32.7266 108.839 32.7943 108.828 32.8516C108.818 32.9245 108.807 32.987 108.797 33.0391H103.672C103.693 33.263 103.758 33.4766 103.867 33.6797C103.977 33.8828 104.112 34.0625 104.273 34.2188C104.44 34.3698 104.638 34.4922 104.867 34.5859C105.096 34.6745 105.339 34.7188 105.594 34.7188C106.031 34.7188 106.378 34.625 106.633 34.4375C106.893 34.25 107.081 34.0781 107.195 33.9219H108.719ZM105.516 30.0781C105.036 30.0781 104.63 30.2422 104.297 30.5703C103.969 30.8932 103.76 31.3177 103.672 31.8438H107.516C107.432 31.3229 107.219 30.8984 106.875 30.5703C106.536 30.2422 106.083 30.0781 105.516 30.0781ZM113.594 32.5625L111.039 36H109.281L112.234 32.1562L109.594 28.7969H111.281L113.594 31.9219V28.7969H115.039V31.9219L117.359 28.7969H119.039L116.398 32.1562L119.359 36H117.594L115.039 32.5625V36H113.594V32.5625ZM126.484 28.7969V36H125.047V30.9609L121.602 36H120.164V28.7969H121.602V33.8438L125.047 28.7969H126.484ZM131.758 36L129.836 32V36H128.398V28.7969H129.68L132.234 34.0781L134.797 28.7969H136.078V36H134.641V32L132.719 36H131.758ZM144.234 33.9219C144.115 34.2188 143.964 34.4974 143.781 34.7578C143.599 35.0182 143.38 35.2474 143.125 35.4453C142.87 35.6432 142.573 35.7995 142.234 35.9141C141.901 36.0234 141.526 36.0781 141.109 36.0781C140.63 36.0781 140.182 35.9896 139.766 35.8125C139.349 35.6302 138.984 35.3776 138.672 35.0547C138.359 34.7266 138.115 34.3385 137.938 33.8906C137.76 33.4427 137.672 32.9453 137.672 32.3984C137.672 31.8568 137.76 31.362 137.938 30.9141C138.115 30.4661 138.354 30.0807 138.656 29.7578C138.958 29.4297 139.315 29.1745 139.727 28.9922C140.138 28.8099 140.573 28.7188 141.031 28.7188C141.49 28.7188 141.924 28.8099 142.336 28.9922C142.747 29.1745 143.104 29.4297 143.406 29.7578C143.708 30.0807 143.948 30.4661 144.125 30.9141C144.302 31.362 144.391 31.8568 144.391 32.3984C144.391 32.4818 144.385 32.5651 144.375 32.6484C144.365 32.7266 144.354 32.7943 144.344 32.8516C144.333 32.9245 144.323 32.987 144.312 33.0391H139.188C139.208 33.263 139.273 33.4766 139.383 33.6797C139.492 33.8828 139.628 34.0625 139.789 34.2188C139.956 34.3698 140.154 34.4922 140.383 34.5859C140.612 34.6745 140.854 34.7188 141.109 34.7188C141.547 34.7188 141.893 34.625 142.148 34.4375C142.409 34.25 142.596 34.0781 142.711 33.9219H144.234ZM141.031 30.0781C140.552 30.0781 140.146 30.2422 139.812 30.5703C139.484 30.8932 139.276 31.3177 139.188 31.8438H143.031C142.948 31.3229 142.734 30.8984 142.391 30.5703C142.052 30.2422 141.599 30.0781 141.031 30.0781Z" fill="#F4F5F7"/>
<circle opacity="0.3" cx="10" cy="10" r="10" fill="#49C171"/>
<circle cx="10" cy="10" r="5" fill="#49C171"/>
</svg>
