<svg width="206" height="39.99999999999999" xmlns="http://www.w3.org/2000/svg">
 <g>
  <title>background</title>
  <rect fill="none" id="canvas_background" height="42" width="208" y="-1" x="-1"/>
 </g>
 <g>
  <title>Layer 1</title>
  <g id="svg_1">
   <path id="svg_2" fill="#5946D7" d="m63.5156,12.4062c-2.1354,0 -4.0416,0.8386 -5.7187,2.5157c-1.6667,1.6771 -2.5,3.6041 -2.5,5.7812c0,1.8334 0.6093,3.3698 1.8281,4.6094c1.2292,1.2292 2.8073,1.8437 4.7344,1.8437c2.1146,0 4.0104,-0.8177 5.6875,-2.4531c1.6875,-1.6458 2.5312,-3.5989 2.5312,-5.8593c0,-1.8334 -0.6198,-3.3646 -1.8593,-4.5938c-1.2396,-1.2292 -2.8073,-1.8438 -4.7032,-1.8438zm-13.25,8.5782c0,-3.375 1.3646,-6.3594 4.0938,-8.9532c2.7396,-2.60412 5.901,-3.9062 9.4844,-3.9062c3.302,0 6.0052,1.02083 8.1093,3.0625c2.1042,2.0313 3.1563,4.4948 3.1563,7.3906c0,2.2604 -0.6302,4.3907 -1.8906,6.3907c-1.2605,1.9895 -2.9323,3.5729 -5.0157,4.75c-2.0729,1.177 -4.276,1.7656 -6.6093,1.7656c-3.3021,0 -6.0157,-1.0156 -8.1407,-3.0469c-2.125,-2.0417 -3.1875,-4.526 -3.1875,-7.4531z"/>
   <path id="svg_3" fill="#5946D7" d="m97.5462,8.59375l4.7968,0l-4.7343,22.40625l-4,0l-8.1875,-14.2656l-3.0156,14.2656l-4.7969,0l4.7344,-22.40625l4,0l8.2031,14.28125l3,-14.28125z"/>
   <path id="svg_4" fill="#5946D7" d="m109.702,26.6875l12,0l-0.906,4.3125l-16.797,0l4.734,-22.40625l16.484,0l-0.89,4.32815l-11.688,0l-0.953,4.4843l9.11,0l-0.922,4.3126l-9.125,0l-1.047,4.9687z"/>
   <path id="svg_5" fill="#5946D7" d="m125.92,31l4.734,-22.40625l9.469,0c1.896,0 3.49,0.64063 4.781,1.92185c1.302,1.2813 1.953,2.7761 1.953,4.4844c0,1.1042 -0.192,2.125 -0.578,3.0625c-0.385,0.9271 -0.854,1.6563 -1.406,2.1875c-0.542,0.5312 -1.078,0.9792 -1.609,1.3438c-0.532,0.3645 -0.99,0.6093 -1.375,0.7343l-0.578,0.1875l3.015,8.4844l-5,0l-2.656,-7.8438l-4.281,0l-1.672,7.8438l-4.797,0zm12.297,-12.1562c0.979,0 1.844,-0.2969 2.594,-0.8907c0.76,-0.6041 1.14,-1.4062 1.14,-2.4062c0,-0.7292 -0.219,-1.349 -0.656,-1.8594c-0.438,-0.5104 -1.016,-0.7656 -1.734,-0.7656l-5,0l-1.282,5.9219l4.938,0z"/>
   <g id="svg_6" opacity="0.01">
    <path id="svg_7" fill="#5946D7" d="m39.008,16.2793l-1.5004,-0.1802c-1.2499,-0.1501 -2.2603,-1.0689 -2.7416,-2.2322c-0.4813,-1.1633 -0.4045,-2.5064 0.3739,-3.4958l0.9305,-1.18267c0.3392,-0.43358 0.3008,-1.10395 -0.0912,-1.49434l-3.6784,-3.67985c-0.3872,-0.38878 -1.0592,-0.43038 -1.4944,-0.0912l-1.1911,0.93676c-0.987,0.77632 -2.3269,0.85151 -3.4872,0.37139c-1.1609,-0.48032 -2.0789,-1.48818 -2.2281,-2.73557l-0.18,-1.50366c-0.0656,-0.54558 -0.5696,-0.99196 -1.12,-0.99196l-5.2032,0c-0.5504,0 -1.0544,0.44638 -1.1184,0.99196l-0.1804,1.50187c-0.15,1.24876 -1.0696,2.25831 -2.2317,2.73944c-1.1614,0.48084 -2.5014,0.40457 -3.4898,-0.3721l-1.1877,-0.93333c-0.432,-0.33918 -1.104,-0.29919 -1.4928,0.0896l-3.68,3.68145c-0.3872,0.38719 -0.4272,1.05916 -0.0864,1.49434l0.93115,1.18507c0.777,0.9889 0.8528,2.3298 0.37223,3.492c-0.48095,1.1631 -1.49109,2.0832 -2.74079,2.2328l-1.49859,0.1794c-0.5456,0.064 -0.9936,0.568 -0.9936,1.12l0,5.203c0,0.5504 0.4464,1.0512 0.9936,1.1184l1.50535,0.1808c1.24713,0.1498 2.25528,1.0654 2.73545,2.2261c0.48057,1.1617 0.40564,2.5035 -0.37052,3.4924l-0.93268,1.1884c-0.3376,0.4335 -0.2992,1.1039 0.0912,1.4943l3.6736,3.6815c0.3888,0.3871 1.0608,0.4303 1.4928,0.0912l1.1901,-0.9368c0.9877,-0.7773 2.3286,-0.8531 3.4898,-0.3722c1.1617,0.4811 2.0809,1.4896 2.231,2.7381l0.1803,1.5003c0.0656,0.5472 0.568,0.992 1.1184,0.992l5.2032,0c0.552,0 1.0544,-0.4448 1.1184,-0.992l0.1804,-1.5009c0.15,-1.2486 1.0697,-2.2583 2.2317,-2.7391c1.1619,-0.4808 2.5017,-0.4043 3.4906,0.3724l1.1885,0.9334c0.4336,0.3391 1.104,0.2991 1.4928,-0.0896l3.6784,-3.6815c0.3904,-0.3872 0.4304,-1.0592 0.0896,-1.4959l-0.9317,-1.1841c-0.7784,-0.9892 -0.8536,-2.3327 -0.3724,-3.4958c0.4799,-1.16 1.4872,-2.0756 2.7336,-2.2254l1.5049,-0.1808c0.5472,-0.0656 0.9936,-0.5648 0.9936,-1.1184l0,-5.203c0.0016,-0.5536 -0.4432,-1.0544 -0.992,-1.12zm-19.0064,13.7195c-5.5232,0 -10,-4.4766 -10,-9.9996c0,-5.523 4.4768,-9.9996 10,-9.9996c5.5232,0 10,4.4766 10,9.9996c0,5.523 -4.4752,9.9996 -10,9.9996z"/>
   </g>
   <g id="svg_8" clip-path="url(#clip0_163:45301)">
    <path id="svg_9" fill="#5946D7" d="m5.51565,26.8064l6.81765,0l0.001,0l7.4433,0l0,0.3306c0,0.7567 0.6153,1.3717 1.3743,1.3717l1.6613,0c0.7585,0 1.3737,-0.6161 1.3737,-1.3717l0,-1.2921c0.5026,-0.5471 0.8128,-1.281 0.8128,-2.0896l0,-3.3319c0.0011,-1.1212 -0.6194,-2.6664 -1.5692,-3.4995l-0.0136,-0.0165c-0.0118,-0.0145 -0.0235,-0.0287 -0.0381,-0.0429l-0.8878,-0.8793c0.7363,-0.1714 1.5289,-0.8045 1.5289,-1.4539c0,-0.7567 -1.0232,-1.0252 -1.8965,-1.0252c-0.9131,0 -1.019,0.642 -1.0299,1.0957l-2.2905,-2.2663c-0.4653,-0.4728 -1.3479,-0.8448 -2.0076,-0.8448l-4.4611,0l-0.001,0l-4.46203,0c-0.58395,0 -1.34274,0.2919 -1.83222,0.6872c-0.55976,0.9969 -1.01583,2.0598 -1.35359,3.1742l2.01989,-2.0095c0.32211,-0.2754 0.88517,-0.4844 1.16592,-0.4844l3.12893,0.1418l1.6372,0.3426l3.9129,0c0.0571,0 0.1241,-0.0046 0.1974,-0.0097c0.287,-0.0198 0.67,-0.0462 0.9266,0.1732l2.3259,2.824l-7.6659,0l-0.001,0l-7.91053,0c-0.22405,0.9547 -0.3626,1.9423 -0.40715,2.9544c0.73412,0.4845 1.37438,1.0753 1.37438,1.4886c0,0.405 -0.61478,0.5637 -1.33022,0.6207c0.05447,0.6312 0.1456,1.252 0.27124,1.8602l1.77456,2.0905l-1.19091,0.0011c0.17675,0.4987 0.37754,0.9862 0.60098,1.4608zm6.81865,-3.9872l4.216,0c0.8789,0 1.5925,-1.1117 1.5925,-2.4839l-5.8085,0l-0.001,0l-5.8084,0c0,1.3717 0.71351,2.4839 1.59248,2.4839l4.21592,0l0.001,0zm10.7834,1.7776c0.0667,-0.0923 0.1153,-0.1836 0.1474,-0.2748c0.1959,-0.571 -0.2105,-1.0931 -0.2105,-1.0931l-2.6953,0l-1.7983,2.1172l1.2166,0l0.2663,0l0.2663,0l1.5795,0.0027c0.4385,-0.1391 0.7482,-0.3036 0.9664,-0.4792c0.1111,-0.0886 0.1959,-0.181 0.2616,-0.2728zm-0.9364,-3.1861c0.1546,-0.0039 0.2883,-0.0072 0.3909,-0.0072c0.7725,0 1.3981,-0.6644 1.3981,-1.4842c0,-0.8203 -0.6256,-1.4863 -1.3981,-1.4863c-0.7714,0 -3.294,1.5208 -3.294,2.3401c0,0.7103 1.8959,0.6628 2.9031,0.6376z" clip-rule="evenodd" fill-rule="evenodd"/>
   </g>
   <path id="svg_10" fill="#5946D7" d="m20,32c6.6274,0 12,-5.3726 12,-12c0,-6.6274 -5.3726,-12 -12,-12c-6.6274,0 -12,5.3726 -12,12c0,6.6274 5.3726,12 12,12zm0,4c8.8366,0 16,-7.1634 16,-16c0,-8.8366 -7.1634,-16 -16,-16c-8.8366,0 -16,7.1634 -16,16c0,8.8366 7.1634,16 16,16z" clip-rule="evenodd" fill-rule="evenodd"/>
   <defs>
    <clipPath id="clip0_163:45301">
     <rect id="svg_11" x="6" y="7" fill="white" height="26" width="19"/>
    </clipPath>
   </defs>
  </g>
  <g id="svg_12" fill="none"/>
  <defs>
   <clipPath id="svg_24">
    <rect x="1.03214" y="-0.00002" id="svg_64" fill="white" height="40" width="40"/>
   </clipPath>
   <clipPath id="svg_23">
    <rect x="817.51276" y="159.46171" id="svg_65" fill="white" height="40" width="40"/>
   </clipPath>
   <clipPath id="svg_22">
    <rect id="svg_66" fill="white" height="40" width="40"/>
   </clipPath>
   <clipPath id="svg_21">
    <rect id="svg_67" x="823.51276" y="166.46171" fill="white" height="26" width="19"/>
   </clipPath>
  </defs>
  <g stroke="null" id="svg_68">
   <path stroke="null" id="svg_45" fill="#5946D7" d="m148.48244,29.14926c0,-0.65922 0.28732,-1.26098 0.86296,-1.80508c0.57564,-0.55464 1.24069,-0.83202 1.99414,-0.83202c0.69016,0 1.25576,0.21458 1.69477,0.64355c0.45006,0.42907 0.6751,0.94714 0.6751,1.55403c0,0.71166 -0.28732,1.32899 -0.86296,1.85229c-0.57564,0.51275 -1.24069,0.76913 -1.99414,0.76913c-0.69016,0 -1.26078,-0.21971 -1.71084,-0.65932c-0.43901,-0.43941 -0.65902,-0.94704 -0.65902,-1.52258z"/>
   <path stroke="null" id="svg_49" fill="#5946D7" d="m158.21406,31.01723l4.75581,-22.50946l9.51262,0c1.90473,0 3.50507,0.64358 4.80302,1.9307c1.308,1.2872 1.962,2.78889 1.962,4.50506c0,1.10929 -0.19288,2.13479 -0.58066,3.07661c-0.38677,0.93137 -0.85793,1.66393 -1.41248,2.19758c-0.5445,0.53365 -1.08297,0.98371 -1.61742,1.34999c-0.53345,0.36618 -0.99356,0.61211 -1.38133,0.73768l-0.58066,0.18836l3.02989,8.52348l-5.02303,0l-2.66823,-7.87993l-4.30172,0l-1.6787,7.87993l-4.8191,0zm12.35365,-12.2122c0.98351,0 1.85149,-0.29827 2.60494,-0.8948c0.76451,-0.60688 1.14626,-1.41268 1.14626,-2.41728c0,-0.73256 -0.22001,-1.35521 -0.65902,-1.86797c-0.44002,-0.51275 -1.02068,-0.76913 -1.74299,-0.76913l-5.02303,0l-1.2869,5.94918l4.96075,0z"/>
   <path stroke="null" id="svg_53" fill="#5946D7" d="m192.29132,27.15572c1.37129,0 2.62102,-0.5023 3.7512,-1.50691c1.14123,-1.00461 1.87359,-2.27081 2.19808,-3.79862l2.82495,-13.34243l4.8191,0l-2.82495,13.34243c-0.59674,2.80456 -1.89469,5.11726 -3.89285,6.93801c-1.98812,1.8104 -4.35396,2.71565 -7.09554,2.71565c-2.51152,0 -4.60913,-0.73778 -6.29386,-2.21335c-1.67468,-1.48591 -2.51152,-3.36433 -2.51152,-5.63514c0,-0.57554 0.06229,-1.1773 0.18786,-1.80518l2.82596,-13.34243l4.81809,0l-2.82495,13.34243c-0.08338,0.36628 -0.12558,0.75345 -0.12558,1.16153c0,1.22441 0.38677,2.2238 1.16133,2.99815c0.7846,0.7639 1.77916,1.14585 2.98268,1.14585z"/>
   <g stroke="null" transform="matrix(1.00460642909346,0,0,1.00460642909346,-821.7109362629747,-160.1962647621142) " id="svg_54" clip-path="url(#svg_24)">
    <g stroke="null" id="svg_55" clip-path="url(#svg_23)">
     <g stroke="null" id="svg_56" clip-path="url(#svg_21)">
      <path stroke="null" id="svg_60" fill="#5946D7" d="m840.94236,176.38511c-0.017,-0.0202 -0.0315,-0.0398 -0.0517,-0.0594l-0.8877,-0.8793c0.7362,-0.1714 1.5288,-0.8044 1.5288,-1.4539c0,-0.7567 -1.0232,-1.0252 -1.8965,-1.0252c-0.913,0 -1.019,0.642 -1.0299,1.0957l-2.2905,-2.2663c-0.4653,-0.4728 -1.3479,-0.8448 -2.0076,-0.8448l-4.461,0l-0.0011,0l-4.46202,0c-0.65922,0 -1.54129,0.372 -2.00714,0.8448l-2.28996,2.2663c-0.0119,-0.4537 -0.11789,-1.0957 -1.02995,-1.0957c-0.87431,0 -1.89701,0.2685 -1.89701,1.0252c0,0.6495 0.79314,1.2825 1.5294,1.4539l-0.88775,0.8793c-0.02017,0.0196 -0.03413,0.0392 -0.05171,0.0594c-0.9498,0.8331 -1.57024,2.3783 -1.57024,3.4995l0,3.3319c0,0.8087 0.31074,1.5425 0.81278,2.0896l0,1.2921c0,0.7556 0.61631,1.3717 1.37429,1.3717l1.66176,0c0.75798,0 1.37377,-0.615 1.37377,-1.3717l0,-0.3306l7.44378,0l0.0011,0l7.4432,0l0,0.3306c0,0.7567 0.6153,1.3717 1.3743,1.3717l1.6613,0c0.7585,0 1.3737,-0.6161 1.3737,-1.3717l0,-1.2921c0.5026,-0.5471 0.8128,-1.2809 0.8128,-2.0896l0,-3.3319c0.0011,-1.1212 -0.6194,-2.6664 -1.5692,-3.4995zm-16.72514,-3.5813c0.32212,-0.2754 0.88517,-0.4844 1.16592,-0.4844l3.12892,0.1418l1.6372,0.3426l3.9129,0c0.2807,0 0.8019,-0.1119 1.124,0.1635l2.3259,2.824l-7.6658,0l-0.0011,0l-8.6309,0l3.00296,-2.9875zm-6.00799,6.5767c0,-0.8203 0.62562,-1.4863 1.39808,-1.4863c0.77193,0 3.29456,1.5198 3.29456,2.3401c0,0.8204 -2.52263,0.6304 -3.29456,0.6304c-0.77246,0 -1.39808,-0.6633 -1.39808,-1.4842zm4.19267,5.4263l-0.26628,0l-0.26627,0l-1.57955,0.0026c-0.43845,-0.1401 -0.74764,-0.3035 -0.96635,-0.4791c-0.11065,-0.0886 -0.19544,-0.181 -0.26162,-0.2728c-0.0667,-0.0928 -0.1153,-0.1841 -0.14684,-0.2754c-0.19647,-0.5699 0.2094,-1.0936 0.2094,-1.0936l2.69584,0l1.79723,2.1172l-1.21556,0.0011zm11.32006,0.001l-3.8757,0l-0.0011,0l-3.8757,0c-0.80813,0 -1.46425,-0.6733 -1.46425,-1.5022l5.33995,0l0.0011,0l5.3399,0c0,0.8299 -0.6561,1.5022 -1.4642,1.5022zm0.3402,-2.5274l-4.2159,0l-0.0011,0l-4.21591,0c-0.87896,0 -1.59248,-1.1122 -1.59248,-2.4839l5.80839,0l0.0011,0l5.8084,0c0,1.3723 -0.7135,2.4839 -1.5925,2.4839zm6.7148,1.5028c-0.0321,0.0913 -0.0807,0.1825 -0.1474,0.2749c-0.0657,0.0918 -0.1504,0.1841 -0.2616,0.2727c-0.2182,0.1756 -0.5279,0.3401 -0.9664,0.4792l-1.5795,-0.0027l-0.2663,0l-0.2663,0l-1.2165,0l1.7982,-2.1172l2.6953,0c0,0 0.4064,0.5221 0.2105,1.0931zm-0.6929,-2.9185c-0.7714,0 -3.294,0.1889 -3.294,-0.6304c0,-0.8193 2.5226,-2.3401 3.294,-2.3401c0.7725,0 1.3981,0.666 1.3981,1.4863c0,0.8199 -0.6256,1.4842 -1.3981,1.4842z"/>
      <g stroke="null" id="svg_61" fill="none">
       <path stroke="null" id="svg_62" fill="#5946D7" d="m856.52076,175.74101l-1.5004,-0.1802c-1.2499,-0.1501 -2.2603,-1.0689 -2.7416,-2.2322c-0.4813,-1.1633 -0.4045,-2.5064 0.3739,-3.4958l0.9305,-1.18267c0.3392,-0.43358 0.3008,-1.10395 -0.0912,-1.49434l-3.6784,-3.67985c-0.3872,-0.38878 -1.0592,-0.43038 -1.4944,-0.0912l-1.1911,0.93676c-0.987,0.77632 -2.3269,0.85151 -3.4872,0.37139c-1.1609,-0.48032 -2.0789,-1.48818 -2.2281,-2.73557l-0.18,-1.50366c-0.0656,-0.54558 -0.5696,-0.99196 -1.12,-0.99196l-5.2032,0c-0.5504,0 -1.0544,0.44638 -1.1184,0.99196l-0.1804,1.50187c-0.15,1.24876 -1.0696,2.25831 -2.2317,2.73944c-1.1614,0.48084 -2.5014,0.40457 -3.4898,-0.3721l-1.1877,-0.93333c-0.432,-0.33918 -1.104,-0.29919 -1.4928,0.0896l-3.68,3.68145c-0.3872,0.38719 -0.4272,1.05916 -0.0864,1.49434l0.93115,1.18507c0.777,0.9889 0.8528,2.3298 0.37223,3.492c-0.48095,1.1631 -1.49109,2.0832 -2.74079,2.2328l-1.49859,0.1794c-0.5456,0.064 -0.9936,0.568 -0.9936,1.12l0,5.203c0,0.5504 0.4464,1.0512 0.9936,1.1184l1.50535,0.1808c1.24713,0.1498 2.25528,1.0654 2.73545,2.2261c0.48057,1.1617 0.40564,2.5035 -0.37052,3.4924l-0.93268,1.1884c-0.3376,0.4335 -0.2992,1.1039 0.0912,1.4943l3.6736,3.6815c0.3888,0.3871 1.0608,0.4303 1.4928,0.0912l1.1901,-0.9368c0.9877,-0.7773 2.3286,-0.8531 3.4898,-0.3722c1.1617,0.4811 2.0809,1.4896 2.231,2.7381l0.1803,1.5003c0.0656,0.5472 0.568,0.992 1.1184,0.992l5.2032,0c0.552,0 1.0544,-0.4448 1.1184,-0.992l0.1804,-1.5009c0.15,-1.2486 1.0697,-2.2583 2.2317,-2.7391c1.1619,-0.4808 2.5017,-0.4043 3.4906,0.3724l1.1885,0.9334c0.4336,0.3391 1.104,0.2991 1.4928,-0.0896l3.6784,-3.6815c0.3904,-0.3872 0.4304,-1.0592 0.0896,-1.4959l-0.9317,-1.1841c-0.7784,-0.9892 -0.8536,-2.3327 -0.3724,-3.4958c0.4799,-1.16 1.4872,-2.0756 2.7336,-2.2254l1.5049,-0.1808c0.5472,-0.0656 0.9936,-0.5648 0.9936,-1.1184l0,-5.203c0.0016,-0.5536 -0.4432,-1.0544 -0.992,-1.12zm-19.0064,13.7195c-5.5232,0 -10,-4.4766 -10,-9.9996c0,-5.523 4.4768,-9.9996 10,-9.9996c5.5232,0 10,4.4766 10,9.9996c0,5.523 -4.4752,9.9996 -10,9.9996z"/>
      </g>
     </g>
     <circle stroke="white" id="svg_63" stroke-width="3" r="11.5" cy="179.46171" cx="837.51276"/>
    </g>
   </g>
  </g>
 </g>
 <g height="90vh" viewBox="0 0 40 40" fill="none">
        <path d="M39.008 16.2793L37.5076 16.0991C36.2577 15.949 35.2473 15.0302 34.766 13.8669C34.2847 12.7036 34.3615 11.3605 35.1399 10.3711L36.0704 
        9.18843C36.4096 8.75485 36.3712 8.08448 35.9792 7.69409L32.3008 4.01424C31.9136 3.62546 31.2416 3.58386 30.8064 3.92304L29.6153 4.8598C28.6283 5.63612 
        27.2884 5.71131 26.1281 5.23119C24.9672 4.75087 24.0492 3.74301 23.9 2.49562L23.72 0.99196C23.6544 0.446382 23.1504 0 22.6 0H17.3968C16.8464 0 16.3424 
        0.446382 16.2784 0.99196L16.098 2.49383C15.948 3.74259 15.0284 4.75214 13.8663 5.23327C12.7049 5.71411 11.3649 5.63784 10.3765 4.86117L9.1888 
        3.92784C8.7568 3.58866 8.0848 3.62865 7.696 4.01744L4.016 7.69889C3.6288 8.08608 3.5888 8.75805 3.9296 9.19323L4.86075 10.3783C5.63775 11.3672 
        5.71355 12.7081 5.23298 13.8703C4.75203 15.0334 3.74189 15.9535 2.49219 16.1031L0.9936 16.2825C0.448 16.3465 0 16.8505 0 17.4025V22.6055C0 23.1559 0.4464 
        23.6567 0.9936 23.7239L2.49895 23.9047C3.74608 24.0545 4.75423 24.9701 5.2344 26.1308C5.71497 27.2925 5.64004 28.6343 4.86388 29.6232L3.9312 
        30.8116C3.5936 31.2451 3.632 31.9155 4.0224 32.3059L7.696 35.9874C8.0848 36.3745 8.7568 36.4177 9.1888 36.0786L10.3789 35.1418C11.3666 34.3645 12.7075 
        34.2887 13.8687 34.7696C15.0304 35.2507 15.9496 36.2592 16.0997 37.5077L16.28 39.008C16.3456 39.5552 16.848 40 17.3984 40H22.6016C23.1536 40 23.656 
        39.5552 23.72 39.008L23.9004 37.5071C24.0504 36.2585 24.9701 35.2488 26.1321 34.768C27.294 34.2872 28.6338 34.3637 29.6227 35.1404L30.8112 36.0738C31.2448 
        36.4129 31.9152 36.3729 32.304 35.9842L35.9824 32.3027C36.3728 31.9155 36.4128 31.2435 36.072 30.8068L35.1403 29.6227C34.3619 28.6335 34.2867 27.29 
        34.7679 26.1269C35.2478 24.9669 36.2551 24.0513 37.5015 23.9015L39.0064 23.7207C39.5536 23.6551 40 23.1559 40 22.6023V17.3993C40.0016 16.8457 39.5568 
        16.3449 39.008 16.2793ZM20.0016 29.9988C14.4784 29.9988 10.0016 25.5222 10.0016 19.9992C10.0016 14.4762 14.4784 9.9996 20.0016 9.9996C25.5248 9.9996 
        30.0016 14.4762 30.0016 19.9992C30.0016 25.5222 25.5264 29.9988 20.0016 29.9988Z" 
        fill="#5946D7"/>
        <animateTransform
            attributeName="transform" 
            attributeType="XML" 
            type="rotate" 
            from="0 20 20" 
            to="360 20 20" 
            dur="3.5s" 
            repeatCount="indefinite"/>
    </g>
</svg>