<svg width="30" height="30" viewBox="0 0 30 30" fill="none" xmlns="http://www.w3.org/2000/svg">
<path d="M5.87305 12L7.40805 19.246C7.61905 20.244 8.54805 20.923 9.56405 20.822L16.38 20.14C17.22 20.056 17.916 19.454 18.121 18.635L19.469 13.243C19.627 12.611 19.15 12 18.499 12H10.186" stroke="#5946D7" stroke-width="1.5" stroke-linecap="round" stroke-linejoin="round"/>
<path d="M5.874 12L5.224 9H3.5" stroke="#5946D7" stroke-width="1.5" stroke-linecap="round" stroke-linejoin="round"/>
<path d="M17.1093 24.2668C16.9073 24.2668 16.7433 24.4308 16.7453 24.6328C16.7453 24.8348 16.9093 24.9988 17.1113 24.9988C17.3133 24.9988 17.4773 24.8348 17.4773 24.6328C17.4763 24.4308 17.3123 24.2668 17.1093 24.2668" stroke="#5946D7" stroke-width="1.5" stroke-linecap="round" stroke-linejoin="round"/>
<path d="M8.69773 24.2663C8.49573 24.2663 8.33173 24.4303 8.33373 24.6323C8.33173 24.8353 8.49673 24.9993 8.69873 24.9993C8.90073 24.9993 9.06473 24.8353 9.06473 24.6333C9.06473 24.4303 8.90073 24.2663 8.69773 24.2663" stroke="#5946D7" stroke-width="1.5" stroke-linecap="round" stroke-linejoin="round"/>
<rect x="14" width="16" height="16" rx="8" fill="#FB6019"/>
<path d="M22.1172 7.01953C22.4453 7.01953 22.7559 7.08398 23.0488 7.21289C23.3418 7.3418 23.5957 7.51758 23.8105 7.74023C24.0293 7.96289 24.2012 8.22852 24.3262 8.53711C24.4551 8.8457 24.5195 9.17969 24.5195 9.53906C24.5195 9.89844 24.4551 10.2324 24.3262 10.541C24.2012 10.8496 24.0254 11.1172 23.7988 11.3438C23.5762 11.5664 23.3105 11.7422 23.002 11.8711C22.6934 11.9961 22.3594 12.0586 22 12.0586C21.6562 12.0586 21.3418 12.0078 21.0566 11.9062C20.7754 11.8008 20.5293 11.6582 20.3184 11.4785C20.1113 11.2988 19.9414 11.0898 19.8086 10.8516C19.6758 10.6094 19.5859 10.3516 19.5391 10.0781H20.5C20.5625 10.3828 20.7207 10.6504 20.9746 10.8809C21.2324 11.1074 21.5742 11.2207 22 11.2207C22.2227 11.2207 22.4277 11.1816 22.6152 11.1035C22.8066 11.0215 22.9707 10.9082 23.1074 10.7637C23.248 10.6191 23.3574 10.4434 23.4355 10.2363C23.5176 10.0293 23.5586 9.79688 23.5586 9.53906C23.5586 9.02734 23.4121 8.61914 23.1191 8.31445C22.8301 8.00977 22.457 7.85742 22 7.85742C21.7266 7.85742 21.498 7.90625 21.3145 8.00391C21.1309 8.10156 20.9824 8.20508 20.8691 8.31445C20.7324 8.45117 20.6289 8.59961 20.5586 8.75977H19.7207L20.2012 4.44141H24.0391V5.33789H21.0391L20.7988 7.5C20.8965 7.41016 21.0137 7.33008 21.1504 7.25977C21.2637 7.19727 21.4004 7.14258 21.5605 7.0957C21.7246 7.04492 21.9102 7.01953 22.1172 7.01953Z" fill="white"/>
</svg>
