<svg width="117" height="20" viewBox="0 0 117 20" fill="none" xmlns="http://www.w3.org/2000/svg">
<g clip-path="url(#clip0_1_6167)">
<path d="M6.71167 4.58887L8.2151 7.7603L11.294 8.08687C11.4498 8.10199 11.5976 8.16322 11.7185 8.26272C11.8394 8.36223 11.9279 8.4955 11.9727 8.64554C12.0175 8.79557 12.0165 8.95554 11.97 9.10504C11.9235 9.25454 11.8334 9.38678 11.7114 9.48487L9.25653 11.5034L10.016 14.8969C10.0499 15.0477 10.0387 15.2052 9.98376 15.3497C9.92883 15.4942 9.83258 15.6194 9.70702 15.7096C9.58146 15.7998 9.43213 15.851 9.27764 15.8569C9.12316 15.8629 8.97034 15.8232 8.83824 15.7429L5.99938 14.0157L3.15795 15.742C3.02578 15.8222 2.87297 15.8617 2.71851 15.8557C2.56405 15.8498 2.41475 15.7985 2.28918 15.7084C2.1636 15.6182 2.06729 15.4932 2.01221 15.3487C1.95713 15.2043 1.94572 15.0469 1.97938 14.896L2.74224 11.5034L0.287381 9.48487C0.166199 9.38651 0.0769686 9.25437 0.0310131 9.10521C-0.0149423 8.95605 -0.0155513 8.7966 0.0292636 8.6471C0.0740784 8.49759 0.162297 8.36477 0.282724 8.26548C0.403152 8.1662 0.550359 8.10493 0.705667 8.08945L3.78367 7.76287L5.2871 4.58887C5.35109 4.45415 5.45199 4.34034 5.57806 4.26066C5.70414 4.18097 5.85023 4.13867 5.99938 4.13867C6.14853 4.13867 6.29462 4.18097 6.4207 4.26066C6.54678 4.34034 6.64767 4.45415 6.71167 4.58887Z" fill="#FF9431"/>
</g>
<g clip-path="url(#clip1_1_6167)">
<path d="M21.7117 4.58887L23.2151 7.7603L26.294 8.08687C26.4498 8.10199 26.5976 8.16322 26.7185 8.26272C26.8394 8.36223 26.9279 8.4955 26.9727 8.64554C27.0175 8.79557 27.0165 8.95554 26.97 9.10504C26.9235 9.25454 26.8334 9.38678 26.7114 9.48487L24.2565 11.5034L25.016 14.8969C25.0499 15.0477 25.0387 15.2052 24.9838 15.3497C24.9288 15.4942 24.8326 15.6194 24.707 15.7096C24.5815 15.7998 24.4321 15.851 24.2776 15.8569C24.1232 15.8629 23.9703 15.8232 23.8382 15.7429L20.9994 14.0157L18.158 15.742C18.0258 15.8222 17.873 15.8617 17.7185 15.8557C17.564 15.8498 17.4148 15.7985 17.2892 15.7084C17.1636 15.6182 17.0673 15.4932 17.0122 15.3487C16.9571 15.2043 16.9457 15.0469 16.9794 14.896L17.7422 11.5034L15.2874 9.48487C15.1662 9.38651 15.077 9.25437 15.031 9.10521C14.9851 8.95605 14.9844 8.7966 15.0293 8.6471C15.0741 8.49759 15.1623 8.36477 15.2827 8.26548C15.4032 8.1662 15.5504 8.10493 15.7057 8.08945L18.7837 7.76287L20.2871 4.58887C20.3511 4.45415 20.452 4.34034 20.5781 4.26066C20.7041 4.18097 20.8502 4.13867 20.9994 4.13867C21.1485 4.13867 21.2946 4.18097 21.4207 4.26066C21.5468 4.34034 21.6477 4.45415 21.7117 4.58887Z" fill="#FF9431"/>
</g>
<g clip-path="url(#clip2_1_6167)">
<path d="M36.7117 4.58887L38.2151 7.7603L41.294 8.08687C41.4498 8.10199 41.5976 8.16322 41.7185 8.26272C41.8394 8.36223 41.9279 8.4955 41.9727 8.64554C42.0175 8.79557 42.0165 8.95554 41.97 9.10504C41.9235 9.25454 41.8334 9.38678 41.7114 9.48487L39.2565 11.5034L40.016 14.8969C40.0499 15.0477 40.0387 15.2052 39.9838 15.3497C39.9288 15.4942 39.8326 15.6194 39.707 15.7096C39.5815 15.7998 39.4321 15.851 39.2776 15.8569C39.1232 15.8629 38.9703 15.8232 38.8382 15.7429L35.9994 14.0157L33.158 15.742C33.0258 15.8222 32.873 15.8617 32.7185 15.8557C32.564 15.8498 32.4148 15.7985 32.2892 15.7084C32.1636 15.6182 32.0673 15.4932 32.0122 15.3487C31.9571 15.2043 31.9457 15.0469 31.9794 14.896L32.7422 11.5034L30.2874 9.48487C30.1662 9.38651 30.077 9.25437 30.031 9.10521C29.9851 8.95605 29.9844 8.7966 30.0293 8.6471C30.0741 8.49759 30.1623 8.36477 30.2827 8.26548C30.4032 8.1662 30.5504 8.10493 30.7057 8.08945L33.7837 7.76287L35.2871 4.58887C35.3511 4.45415 35.452 4.34034 35.5781 4.26066C35.7041 4.18097 35.8502 4.13867 35.9994 4.13867C36.1485 4.13867 36.2946 4.18097 36.4207 4.26066C36.5468 4.34034 36.6477 4.45415 36.7117 4.58887Z" fill="#FF9431"/>
</g>
<g clip-path="url(#clip3_1_6167)">
<path d="M51.7117 4.58887L53.2151 7.7603L56.294 8.08687C56.4498 8.10199 56.5976 8.16322 56.7185 8.26272C56.8394 8.36223 56.9279 8.4955 56.9727 8.64554C57.0175 8.79557 57.0165 8.95554 56.97 9.10504C56.9235 9.25454 56.8334 9.38678 56.7114 9.48487L54.2565 11.5034L55.016 14.8969C55.0499 15.0477 55.0387 15.2052 54.9838 15.3497C54.9288 15.4942 54.8326 15.6194 54.707 15.7096C54.5815 15.7998 54.4321 15.851 54.2776 15.8569C54.1232 15.8629 53.9703 15.8232 53.8382 15.7429L50.9994 14.0157L48.158 15.742C48.0258 15.8222 47.873 15.8617 47.7185 15.8557C47.564 15.8498 47.4148 15.7985 47.2892 15.7084C47.1636 15.6182 47.0673 15.4932 47.0122 15.3487C46.9571 15.2043 46.9457 15.0469 46.9794 14.896L47.7422 11.5034L45.2874 9.48487C45.1662 9.38651 45.077 9.25437 45.031 9.10521C44.9851 8.95605 44.9844 8.7966 45.0293 8.6471C45.0741 8.49759 45.1623 8.36477 45.2827 8.26548C45.4032 8.1662 45.5504 8.10493 45.7057 8.08945L48.7837 7.76287L50.2871 4.58887C50.3511 4.45415 50.452 4.34034 50.5781 4.26066C50.7041 4.18097 50.8502 4.13867 50.9994 4.13867C51.1485 4.13867 51.2946 4.18097 51.4207 4.26066C51.5468 4.34034 51.6477 4.45415 51.7117 4.58887Z" fill="#FF9431"/>
</g>
<g clip-path="url(#clip4_1_6167)">
<path d="M66.7117 4.58887L68.2151 7.7603L71.294 8.08687C71.4498 8.10199 71.5976 8.16322 71.7185 8.26272C71.8394 8.36223 71.9279 8.4955 71.9727 8.64554C72.0175 8.79557 72.0165 8.95554 71.97 9.10504C71.9235 9.25454 71.8334 9.38678 71.7114 9.48487L69.2565 11.5034L70.016 14.8969C70.0499 15.0477 70.0387 15.2052 69.9838 15.3497C69.9288 15.4942 69.8326 15.6194 69.707 15.7096C69.5815 15.7998 69.4321 15.851 69.2776 15.8569C69.1232 15.8629 68.9703 15.8232 68.8382 15.7429L65.9994 14.0157L63.158 15.742C63.0258 15.8222 62.873 15.8617 62.7185 15.8557C62.564 15.8498 62.4148 15.7985 62.2892 15.7084C62.1636 15.6182 62.0673 15.4932 62.0122 15.3487C61.9571 15.2043 61.9457 15.0469 61.9794 14.896L62.7422 11.5034L60.2874 9.48487C60.1662 9.38651 60.077 9.25437 60.031 9.10521C59.9851 8.95605 59.9844 8.7966 60.0293 8.6471C60.0741 8.49759 60.1623 8.36477 60.2827 8.26548C60.4032 8.1662 60.5504 8.10493 60.7057 8.08945L63.7837 7.76287L65.2871 4.58887C65.3511 4.45415 65.452 4.34034 65.5781 4.26066C65.7041 4.18097 65.8502 4.13867 65.9994 4.13867C66.1485 4.13867 66.2946 4.18097 66.4207 4.26066C66.5468 4.34034 66.6477 4.45415 66.7117 4.58887Z" fill="#C5C3C8"/>
<mask id="mask0_1_6167" style="mask-type:alpha" maskUnits="userSpaceOnUse" x="59" y="4" width="14" height="12">
<path d="M66.7117 4.58887L68.2151 7.7603L71.294 8.08687C71.4498 8.10199 71.5976 8.16322 71.7185 8.26272C71.8394 8.36223 71.9279 8.4955 71.9727 8.64554C72.0175 8.79557 72.0165 8.95554 71.97 9.10504C71.9235 9.25454 71.8334 9.38678 71.7114 9.48487L69.2565 11.5034L70.016 14.8969C70.0499 15.0477 70.0387 15.2052 69.9838 15.3497C69.9288 15.4942 69.8326 15.6194 69.707 15.7096C69.5815 15.7998 69.4321 15.851 69.2776 15.8569C69.1232 15.8629 68.9703 15.8232 68.8382 15.7429L65.9994 14.0157L63.158 15.742C63.0258 15.8222 62.873 15.8617 62.7185 15.8557C62.564 15.8498 62.4148 15.7985 62.2892 15.7084C62.1636 15.6182 62.0673 15.4932 62.0122 15.3487C61.9571 15.2043 61.9457 15.0469 61.9794 14.896L62.7422 11.5034L60.2874 9.48487C60.1662 9.38651 60.077 9.25437 60.031 9.10521C59.9851 8.95605 59.9844 8.7966 60.0293 8.6471C60.0741 8.49759 60.1623 8.36477 60.2827 8.26548C60.4032 8.1662 60.5504 8.10493 60.7057 8.08945L63.7837 7.76287L65.2871 4.58887C65.3511 4.45415 65.452 4.34034 65.5781 4.26066C65.7041 4.18097 65.8502 4.13867 65.9994 4.13867C66.1485 4.13867 66.2946 4.18097 66.4207 4.26066C66.5468 4.34034 66.6477 4.45415 66.7117 4.58887Z" fill="#FF9431"/>
</mask>
<g mask="url(#mask0_1_6167)">
<rect x="66" y="4" width="6" height="12" fill="#C5C3C8"/>
</g>
</g>
<path d="M84.3711 11.1133H83.3867V13H82.2725V11.1133H78.3486V10.1973L82.0605 4.18164H83.3867V10.1289H84.3711V11.1133ZM82.2725 10.1289V5.78809L79.6133 10.1289H82.2725ZM85.2188 12.3711C85.2188 12.1569 85.2803 11.986 85.4033 11.8584C85.5309 11.7308 85.7018 11.667 85.916 11.667C86.1302 11.667 86.2988 11.7308 86.4219 11.8584C86.5495 11.986 86.6133 12.1569 86.6133 12.3711C86.6133 12.5853 86.5495 12.7562 86.4219 12.8838C86.2988 13.0068 86.1302 13.0684 85.916 13.0684C85.7018 13.0684 85.5309 13.0068 85.4033 12.8838C85.2803 12.7562 85.2188 12.5853 85.2188 12.3711ZM88.7188 8.59082C88.7188 9.18783 88.7826 9.70508 88.9102 10.1426C89.0423 10.5801 89.2155 10.9447 89.4297 11.2363C89.6439 11.5234 89.8877 11.7376 90.1611 11.8789C90.4391 12.0202 90.7262 12.0908 91.0225 12.0908C91.3232 12.0908 91.6104 12.0202 91.8838 11.8789C92.1618 11.7376 92.4079 11.5234 92.6221 11.2363C92.8363 10.9447 93.0072 10.5801 93.1348 10.1426C93.2669 9.70508 93.333 9.18783 93.333 8.59082C93.333 7.99382 93.2669 7.47656 93.1348 7.03906C93.0072 6.59701 92.8363 6.23242 92.6221 5.94531C92.4079 5.65365 92.1618 5.43945 91.8838 5.30273C91.6104 5.16146 91.3232 5.09082 91.0225 5.09082C90.7217 5.09082 90.4346 5.16146 90.1611 5.30273C89.8877 5.43945 89.6439 5.65365 89.4297 5.94531C89.2155 6.23242 89.0423 6.59701 88.9102 7.03906C88.7826 7.47656 88.7188 7.99382 88.7188 8.59082ZM94.4541 8.59082C94.4541 9.31087 94.3607 9.94889 94.1738 10.5049C93.987 11.0563 93.734 11.5234 93.415 11.9062C93.1006 12.2891 92.7383 12.5785 92.3281 12.7744C91.918 12.9704 91.4827 13.0684 91.0225 13.0684C90.5667 13.0684 90.1315 12.9704 89.7168 12.7744C89.3021 12.5785 88.9375 12.2891 88.623 11.9062C88.3132 11.5234 88.0648 11.0563 87.8779 10.5049C87.6911 9.94889 87.5977 9.31087 87.5977 8.59082C87.5977 7.87077 87.6911 7.23275 87.8779 6.67676C88.0648 6.12077 88.3132 5.65365 88.623 5.27539C88.9375 4.89258 89.3021 4.60319 89.7168 4.40723C90.1315 4.21126 90.5667 4.11328 91.0225 4.11328C91.4782 4.11328 91.9111 4.21126 92.3213 4.40723C92.736 4.60319 93.1006 4.89258 93.415 5.27539C93.734 5.65365 93.987 6.12077 94.1738 6.67676C94.3607 7.23275 94.4541 7.87077 94.4541 8.59082Z" fill="#1C1D1E"/>
<path d="M99.6973 9.84863C99.6973 10.5778 99.7839 11.2637 99.957 11.9062C100.13 12.5443 100.324 13.1139 100.538 13.6152C100.78 14.194 101.06 14.7363 101.379 15.2422L100.675 15.7275C100.31 15.2308 99.9844 14.6816 99.6973 14.0801C99.4557 13.556 99.2324 12.9385 99.0273 12.2275C98.8223 11.512 98.7197 10.7191 98.7197 9.84863C98.7197 8.99186 98.8223 8.20345 99.0273 7.4834C99.2324 6.76335 99.4557 6.14355 99.6973 5.62402C99.9844 5.0179 100.31 4.46647 100.675 3.96973L101.379 4.46191C101.06 4.96777 100.78 5.50781 100.538 6.08203C100.324 6.58789 100.13 7.16211 99.957 7.80469C99.7839 8.44727 99.6973 9.12858 99.6973 9.84863ZM105.289 7.18945C105.672 7.18945 106.034 7.26465 106.376 7.41504C106.718 7.56543 107.014 7.77051 107.265 8.03027C107.52 8.29004 107.72 8.59993 107.866 8.95996C108.017 9.31999 108.092 9.70964 108.092 10.1289C108.092 10.5482 108.017 10.9378 107.866 11.2979C107.72 11.6579 107.515 11.9701 107.251 12.2344C106.991 12.4941 106.681 12.6992 106.321 12.8496C105.961 12.9954 105.572 13.0684 105.152 13.0684C104.751 13.0684 104.384 13.0091 104.052 12.8906C103.724 12.7676 103.437 12.6012 103.19 12.3916C102.949 12.182 102.751 11.9382 102.596 11.6602C102.441 11.3776 102.336 11.0768 102.281 10.7578H103.402C103.475 11.1133 103.66 11.4255 103.956 11.6943C104.257 11.9587 104.656 12.0908 105.152 12.0908C105.412 12.0908 105.651 12.0452 105.87 11.9541C106.093 11.8584 106.285 11.7262 106.444 11.5576C106.608 11.389 106.736 11.1839 106.827 10.9424C106.923 10.7008 106.971 10.4297 106.971 10.1289C106.971 9.5319 106.8 9.05566 106.458 8.7002C106.121 8.34473 105.686 8.16699 105.152 8.16699C104.833 8.16699 104.567 8.22396 104.353 8.33789C104.138 8.45182 103.965 8.57259 103.833 8.7002C103.674 8.8597 103.553 9.03288 103.471 9.21973H102.493L103.054 4.18164H107.531V5.22754H104.031L103.751 7.75C103.865 7.64518 104.002 7.55176 104.161 7.46973C104.293 7.39681 104.453 7.33301 104.64 7.27832C104.831 7.21908 105.048 7.18945 105.289 7.18945ZM111.872 4.18164V13H110.751V5.71973L109.493 6.56055L109.001 5.71973L111.175 4.18164H111.872ZM114.948 9.84863C114.948 9.12858 114.862 8.44727 114.688 7.80469C114.515 7.16211 114.322 6.58789 114.107 6.08203C113.866 5.50326 113.586 4.96322 113.267 4.46191L113.964 3.96973C114.328 4.46647 114.657 5.0179 114.948 5.62402C115.19 6.14811 115.413 6.77018 115.618 7.49023C115.823 8.20573 115.926 8.99186 115.926 9.84863C115.926 10.7145 115.823 11.5052 115.618 12.2207C115.413 12.9362 115.19 13.556 114.948 14.0801C114.661 14.6862 114.333 15.2354 113.964 15.7275L113.267 15.2422C113.586 14.7363 113.866 14.194 114.107 13.6152C114.322 13.1094 114.515 12.5374 114.688 11.8994C114.862 11.2614 114.948 10.5778 114.948 9.84863Z" fill="#5F6569"/>
<defs>
<clipPath id="clip0_1_6167">
<rect width="12" height="12" fill="white" transform="translate(0 4)"/>
</clipPath>
<clipPath id="clip1_1_6167">
<rect width="12" height="12" fill="white" transform="translate(15 4)"/>
</clipPath>
<clipPath id="clip2_1_6167">
<rect width="12" height="12" fill="white" transform="translate(30 4)"/>
</clipPath>
<clipPath id="clip3_1_6167">
<rect width="12" height="12" fill="white" transform="translate(45 4)"/>
</clipPath>
<clipPath id="clip4_1_6167">
<rect width="12" height="12" fill="white" transform="translate(60 4)"/>
</clipPath>
</defs>
</svg>
