<svg width="1260" height="420" viewBox="0 0 1260 420" fill="none" xmlns="http://www.w3.org/2000/svg">
<g filter="url(#filter0_i_5_43)">
<rect width="1260" height="420" rx="30" fill="white"/>
<path d="M427.043 211.855H415.168V221.934H429.016V225H411.555V196.562H428.84V199.648H415.168V208.789H427.043V211.855ZM435.422 225V203.867H438.664L438.918 206.992C439.23 206.549 439.569 206.146 439.934 205.781C440.311 205.404 440.708 205.078 441.125 204.805C441.75 204.388 442.427 204.069 443.156 203.848C443.898 203.613 444.68 203.49 445.5 203.477C446.607 203.477 447.609 203.633 448.508 203.945C449.419 204.258 450.194 204.746 450.832 205.41C451.47 206.074 451.958 206.921 452.297 207.949C452.648 208.965 452.824 210.176 452.824 211.582V225H449.211V211.66C449.211 210.723 449.107 209.928 448.898 209.277C448.69 208.626 448.384 208.099 447.98 207.695C447.564 207.292 447.056 206.999 446.457 206.816C445.871 206.634 445.194 206.543 444.426 206.543C443.762 206.543 443.143 206.641 442.57 206.836C441.997 207.018 441.47 207.272 440.988 207.598C440.598 207.884 440.233 208.216 439.895 208.594C439.569 208.971 439.283 209.388 439.035 209.844V225H435.422ZM468.449 222.461C469.1 222.461 469.732 222.357 470.344 222.148C470.969 221.94 471.522 221.647 472.004 221.27C472.486 220.905 472.87 220.475 473.156 219.98C473.456 219.473 473.612 218.926 473.625 218.34H477.043C477.03 219.277 476.783 220.176 476.301 221.035C475.832 221.882 475.201 222.624 474.406 223.262C473.612 223.913 472.701 224.434 471.672 224.824C470.643 225.202 469.569 225.391 468.449 225.391C466.848 225.391 465.448 225.104 464.25 224.531C463.052 223.958 462.056 223.184 461.262 222.207C460.454 221.243 459.849 220.13 459.445 218.867C459.042 217.591 458.84 216.25 458.84 214.844V214.023C458.84 212.63 459.042 211.296 459.445 210.02C459.849 208.743 460.454 207.617 461.262 206.641C462.056 205.677 463.052 204.909 464.25 204.336C465.448 203.763 466.848 203.477 468.449 203.477C469.699 203.477 470.845 203.678 471.887 204.082C472.941 204.473 473.853 205.007 474.621 205.684C475.376 206.374 475.969 207.188 476.398 208.125C476.828 209.062 477.043 210.065 477.043 211.133H473.625C473.612 210.495 473.469 209.896 473.195 209.336C472.935 208.763 472.577 208.262 472.121 207.832C471.665 207.402 471.118 207.064 470.48 206.816C469.855 206.569 469.178 206.445 468.449 206.445C467.329 206.445 466.385 206.673 465.617 207.129C464.862 207.572 464.25 208.151 463.781 208.867C463.312 209.596 462.974 210.41 462.766 211.309C462.57 212.207 462.473 213.112 462.473 214.023V214.844C462.473 215.768 462.57 216.686 462.766 217.598C462.974 218.496 463.312 219.303 463.781 220.02C464.237 220.749 464.842 221.341 465.598 221.797C466.366 222.24 467.316 222.461 468.449 222.461ZM482.453 214.238C482.453 212.715 482.674 211.302 483.117 210C483.56 208.685 484.198 207.546 485.031 206.582C485.852 205.618 486.854 204.863 488.039 204.316C489.224 203.757 490.559 203.477 492.043 203.477C493.54 203.477 494.882 203.757 496.066 204.316C497.264 204.863 498.28 205.618 499.113 206.582C499.934 207.546 500.565 208.685 501.008 210C501.451 211.302 501.672 212.715 501.672 214.238V214.668C501.672 216.191 501.451 217.604 501.008 218.906C500.565 220.208 499.934 221.341 499.113 222.305C498.28 223.268 497.271 224.023 496.086 224.57C494.901 225.117 493.566 225.391 492.082 225.391C490.585 225.391 489.237 225.117 488.039 224.57C486.854 224.023 485.852 223.268 485.031 222.305C484.198 221.341 483.56 220.208 483.117 218.906C482.674 217.604 482.453 216.191 482.453 214.668V214.238ZM486.066 214.668C486.066 215.71 486.19 216.706 486.438 217.656C486.685 218.594 487.062 219.421 487.57 220.137C488.065 220.853 488.69 221.419 489.445 221.836C490.201 222.253 491.079 222.461 492.082 222.461C493.072 222.461 493.938 222.253 494.68 221.836C495.435 221.419 496.066 220.853 496.574 220.137C497.069 219.421 497.44 218.594 497.688 217.656C497.935 216.706 498.059 215.71 498.059 214.668V214.238C498.059 213.21 497.928 212.227 497.668 211.289C497.421 210.339 497.049 209.505 496.555 208.789C496.047 208.073 495.415 207.507 494.66 207.09C493.918 206.66 493.046 206.445 492.043 206.445C491.04 206.445 490.168 206.66 489.426 207.09C488.684 207.507 488.065 208.073 487.57 208.789C487.062 209.505 486.685 210.339 486.438 211.289C486.19 212.227 486.066 213.21 486.066 214.238V214.668ZM506.809 214.258C506.809 212.682 507.004 211.237 507.395 209.922C507.798 208.594 508.371 207.454 509.113 206.504C509.842 205.553 510.728 204.811 511.77 204.277C512.811 203.743 513.977 203.477 515.266 203.477C516.529 203.477 517.629 203.691 518.566 204.121C519.517 204.538 520.337 205.15 521.027 205.957V195H524.641V225H521.32L521.164 222.773C520.461 223.633 519.621 224.284 518.645 224.727C517.668 225.169 516.529 225.391 515.227 225.391C513.951 225.391 512.792 225.117 511.75 224.57C510.721 224.023 509.842 223.268 509.113 222.305C508.384 221.341 507.818 220.208 507.414 218.906C507.01 217.591 506.809 216.178 506.809 214.668V214.258ZM510.422 214.668C510.422 215.697 510.533 216.673 510.754 217.598C510.975 218.522 511.32 219.336 511.789 220.039C512.245 220.742 512.831 221.302 513.547 221.719C514.263 222.122 515.122 222.324 516.125 222.324C517.336 222.324 518.339 222.051 519.133 221.504C519.927 220.957 520.559 220.221 521.027 219.297V209.492C520.559 208.633 519.927 207.93 519.133 207.383C518.339 206.823 517.349 206.543 516.164 206.543C515.148 206.543 514.276 206.751 513.547 207.168C512.831 207.585 512.245 208.145 511.789 208.848C511.32 209.564 510.975 210.391 510.754 211.328C510.533 212.253 510.422 213.229 510.422 214.258V214.668ZM540.852 225.391C539.367 225.391 538 225.137 536.75 224.629C535.513 224.121 534.452 223.411 533.566 222.5C532.681 221.589 531.991 220.508 531.496 219.258C531.001 218.008 530.754 216.647 530.754 215.176V214.355C530.754 212.65 531.027 211.126 531.574 209.785C532.121 208.431 532.85 207.285 533.762 206.348C534.66 205.423 535.682 204.714 536.828 204.219C537.987 203.724 539.172 203.477 540.383 203.477C541.906 203.477 543.234 203.743 544.367 204.277C545.513 204.798 546.464 205.521 547.219 206.445C547.974 207.383 548.534 208.483 548.898 209.746C549.276 211.009 549.465 212.376 549.465 213.848V215.469H534.367V215.605C534.458 216.634 534.66 217.539 534.973 218.32C535.298 219.102 535.741 219.792 536.301 220.391C536.874 221.029 537.564 221.53 538.371 221.895C539.178 222.259 540.07 222.441 541.047 222.441C542.336 222.441 543.482 222.181 544.484 221.66C545.487 221.139 546.32 220.449 546.984 219.59L549.191 221.309C548.488 222.376 547.434 223.327 546.027 224.16C544.634 224.98 542.909 225.391 540.852 225.391ZM540.383 206.445C539.654 206.445 538.964 206.582 538.312 206.855C537.661 207.116 537.076 207.5 536.555 208.008C536.034 208.529 535.591 209.167 535.227 209.922C534.875 210.664 534.628 211.523 534.484 212.5H545.852V212.324C545.852 211.673 545.728 210.977 545.48 210.234C545.233 209.479 544.888 208.828 544.445 208.281C544.003 207.734 543.443 207.292 542.766 206.953C542.102 206.615 541.307 206.445 540.383 206.445ZM554.855 214.258C554.855 212.682 555.051 211.237 555.441 209.922C555.845 208.594 556.418 207.454 557.16 206.504C557.889 205.553 558.775 204.811 559.816 204.277C560.858 203.743 562.023 203.477 563.312 203.477C564.576 203.477 565.676 203.691 566.613 204.121C567.564 204.538 568.384 205.15 569.074 205.957V195H572.688V225H569.367L569.211 222.773C568.508 223.633 567.668 224.284 566.691 224.727C565.715 225.169 564.576 225.391 563.273 225.391C561.997 225.391 560.839 225.117 559.797 224.57C558.768 224.023 557.889 223.268 557.16 222.305C556.431 221.341 555.865 220.208 555.461 218.906C555.057 217.591 554.855 216.178 554.855 214.668V214.258ZM558.469 214.668C558.469 215.697 558.579 216.673 558.801 217.598C559.022 218.522 559.367 219.336 559.836 220.039C560.292 220.742 560.878 221.302 561.594 221.719C562.31 222.122 563.169 222.324 564.172 222.324C565.383 222.324 566.385 222.051 567.18 221.504C567.974 220.957 568.605 220.221 569.074 219.297V209.492C568.605 208.633 567.974 207.93 567.18 207.383C566.385 206.823 565.396 206.543 564.211 206.543C563.195 206.543 562.323 206.751 561.594 207.168C560.878 207.585 560.292 208.145 559.836 208.848C559.367 209.564 559.022 210.391 558.801 211.328C558.579 212.253 558.469 213.229 558.469 214.258V214.668ZM621.496 214.668C621.496 215.592 621.424 216.484 621.281 217.344C621.151 218.19 620.956 218.984 620.695 219.727C620.344 220.703 619.882 221.582 619.309 222.363C618.749 223.132 618.072 223.77 617.277 224.277C616.704 224.629 616.073 224.902 615.383 225.098C614.706 225.293 613.97 225.391 613.176 225.391C612.264 225.391 611.431 225.28 610.676 225.059C609.934 224.837 609.263 224.518 608.664 224.102C608.378 223.893 608.104 223.665 607.844 223.418C607.583 223.171 607.336 222.897 607.102 222.598L606.926 225H603.605V195H607.219V206.133C607.518 205.755 607.85 205.417 608.215 205.117C608.579 204.805 608.97 204.538 609.387 204.316C609.908 204.043 610.48 203.835 611.105 203.691C611.73 203.548 612.408 203.477 613.137 203.477C614.048 203.477 614.888 203.6 615.656 203.848C616.424 204.095 617.121 204.44 617.746 204.883C618.306 205.299 618.807 205.807 619.25 206.406C619.693 206.992 620.083 207.65 620.422 208.379C620.773 209.199 621.04 210.111 621.223 211.113C621.405 212.103 621.496 213.151 621.496 214.258V214.668ZM617.883 214.258C617.883 213.594 617.837 212.949 617.746 212.324C617.668 211.686 617.544 211.087 617.375 210.527C617.141 209.837 616.835 209.206 616.457 208.633C616.079 208.06 615.617 207.611 615.07 207.285C614.693 207.051 614.27 206.868 613.801 206.738C613.332 206.608 612.811 206.543 612.238 206.543C611.613 206.543 611.04 206.628 610.52 206.797C609.999 206.953 609.536 207.174 609.133 207.461C608.716 207.76 608.345 208.112 608.02 208.516C607.707 208.906 607.44 209.336 607.219 209.805V219.043C607.453 219.512 607.727 219.948 608.039 220.352C608.365 220.742 608.736 221.087 609.152 221.387C609.569 221.686 610.038 221.921 610.559 222.09C611.079 222.246 611.652 222.324 612.277 222.324C612.876 222.324 613.423 222.253 613.918 222.109C614.413 221.953 614.855 221.732 615.246 221.445C615.767 221.081 616.203 220.618 616.555 220.059C616.906 219.499 617.186 218.874 617.395 218.184C617.564 217.663 617.688 217.103 617.766 216.504C617.844 215.905 617.883 215.293 617.883 214.668V214.258ZM629.309 233.535C628.97 233.535 628.573 233.496 628.117 233.418C627.661 233.34 627.316 233.275 627.082 233.223L627.668 230.273C627.993 230.299 628.312 230.319 628.625 230.332C628.951 230.358 629.204 230.371 629.387 230.371C629.882 230.371 630.331 230.234 630.734 229.961C631.151 229.688 631.522 229.362 631.848 228.984C632.16 228.607 632.427 228.216 632.648 227.812C632.883 227.409 633.065 227.077 633.195 226.816L634.641 224.004L625.539 203.867H629.582L635.383 217.5L636.32 220.059L637.316 217.578L642.766 203.867H646.809L636.086 228.262C635.839 228.809 635.52 229.388 635.129 230C634.751 230.612 634.289 231.178 633.742 231.699C633.195 232.22 632.557 232.656 631.828 233.008C631.099 233.359 630.259 233.535 629.309 233.535ZM675.285 225V196.562H681.867C682.974 196.576 684.016 196.693 684.992 196.914C685.982 197.122 686.893 197.422 687.727 197.812C688.885 198.346 689.908 199.049 690.793 199.922C691.691 200.781 692.408 201.777 692.941 202.91C693.423 203.874 693.788 204.928 694.035 206.074C694.296 207.22 694.432 208.444 694.445 209.746V211.836C694.445 213.086 694.322 214.271 694.074 215.391C693.84 216.51 693.495 217.539 693.039 218.477C692.57 219.453 691.978 220.339 691.262 221.133C690.546 221.927 689.745 222.604 688.859 223.164C687.922 223.75 686.861 224.199 685.676 224.512C684.504 224.824 683.234 224.987 681.867 225H675.285ZM678.957 199.531V222.051H681.867C682.909 222.038 683.853 221.908 684.699 221.66C685.559 221.413 686.32 221.061 686.984 220.605C687.688 220.137 688.293 219.564 688.801 218.887C689.322 218.197 689.732 217.428 690.031 216.582C690.292 215.892 690.487 215.15 690.617 214.355C690.747 213.548 690.819 212.708 690.832 211.836V209.707C690.819 208.822 690.741 207.975 690.598 207.168C690.467 206.348 690.266 205.586 689.992 204.883C689.641 203.971 689.165 203.151 688.566 202.422C687.98 201.68 687.258 201.081 686.398 200.625C685.786 200.286 685.103 200.026 684.348 199.844C683.592 199.648 682.766 199.544 681.867 199.531H678.957ZM713.566 225C713.423 224.727 713.306 224.388 713.215 223.984C713.137 223.568 713.078 223.138 713.039 222.695C712.674 223.06 712.264 223.405 711.809 223.73C711.366 224.056 710.878 224.342 710.344 224.59C709.797 224.837 709.217 225.033 708.605 225.176C707.993 225.319 707.342 225.391 706.652 225.391C705.533 225.391 704.517 225.228 703.605 224.902C702.707 224.577 701.945 224.134 701.32 223.574C700.682 223.027 700.188 222.376 699.836 221.621C699.497 220.853 699.328 220.026 699.328 219.141C699.328 217.982 699.556 216.966 700.012 216.094C700.48 215.221 701.138 214.492 701.984 213.906C702.831 213.333 703.846 212.904 705.031 212.617C706.229 212.331 707.564 212.188 709.035 212.188H712.98V210.527C712.98 209.889 712.863 209.316 712.629 208.809C712.395 208.301 712.062 207.865 711.633 207.5C711.203 207.148 710.676 206.875 710.051 206.68C709.439 206.484 708.749 206.387 707.98 206.387C707.264 206.387 706.62 206.478 706.047 206.66C705.487 206.842 705.012 207.083 704.621 207.383C704.23 207.682 703.924 208.04 703.703 208.457C703.495 208.861 703.391 209.284 703.391 209.727H699.758C699.771 208.958 699.966 208.203 700.344 207.461C700.734 206.719 701.294 206.048 702.023 205.449C702.74 204.863 703.612 204.388 704.641 204.023C705.682 203.659 706.861 203.477 708.176 203.477C709.374 203.477 710.487 203.626 711.516 203.926C712.544 204.212 713.436 204.648 714.191 205.234C714.934 205.833 715.52 206.576 715.949 207.461C716.379 208.346 716.594 209.382 716.594 210.566V220.391C716.594 221.094 716.659 221.842 716.789 222.637C716.919 223.418 717.102 224.102 717.336 224.688V225H713.566ZM707.18 222.246C707.883 222.246 708.54 222.155 709.152 221.973C709.764 221.79 710.324 221.549 710.832 221.25C711.327 220.951 711.757 220.612 712.121 220.234C712.486 219.844 712.772 219.44 712.98 219.023V214.746H709.621C708.371 214.746 707.277 214.857 706.34 215.078C705.415 215.286 704.68 215.612 704.133 216.055C703.742 216.367 703.443 216.738 703.234 217.168C703.039 217.598 702.941 218.086 702.941 218.633C702.941 219.154 703.026 219.635 703.195 220.078C703.378 220.521 703.645 220.898 703.996 221.211C704.348 221.536 704.79 221.79 705.324 221.973C705.858 222.155 706.477 222.246 707.18 222.246ZM723.703 225V203.867H726.945L727.199 206.992C727.512 206.549 727.85 206.146 728.215 205.781C728.592 205.404 728.99 205.078 729.406 204.805C730.031 204.388 730.708 204.069 731.438 203.848C732.18 203.613 732.961 203.49 733.781 203.477C734.888 203.477 735.891 203.633 736.789 203.945C737.701 204.258 738.475 204.746 739.113 205.41C739.751 206.074 740.24 206.921 740.578 207.949C740.93 208.965 741.105 210.176 741.105 211.582V225H737.492V211.66C737.492 210.723 737.388 209.928 737.18 209.277C736.971 208.626 736.665 208.099 736.262 207.695C735.845 207.292 735.337 206.999 734.738 206.816C734.152 206.634 733.475 206.543 732.707 206.543C732.043 206.543 731.424 206.641 730.852 206.836C730.279 207.018 729.751 207.272 729.27 207.598C728.879 207.884 728.514 208.216 728.176 208.594C727.85 208.971 727.564 209.388 727.316 209.844V225H723.703ZM748.293 203.867H759.094V221.875H765.988V225H748.293V221.875H755.48V207.012H748.293V203.867ZM755.012 198.32C755.012 198.008 755.057 197.715 755.148 197.441C755.253 197.168 755.409 196.934 755.617 196.738C755.786 196.569 756.001 196.439 756.262 196.348C756.535 196.243 756.841 196.191 757.18 196.191C757.518 196.191 757.818 196.243 758.078 196.348C758.339 196.439 758.553 196.569 758.723 196.738C758.931 196.921 759.087 197.148 759.191 197.422C759.296 197.695 759.348 197.995 759.348 198.32C759.348 198.906 759.165 199.395 758.801 199.785C758.436 200.176 757.896 200.371 757.18 200.371C756.451 200.371 755.904 200.176 755.539 199.785C755.188 199.395 755.012 198.906 755.012 198.32ZM772.316 195H783.117V221.875H790.012V225H772.316V221.875H779.504V198.145H772.316V195ZM802.102 215.137L799.445 217.695V225H795.812V195H799.445V213.359L801.809 210.82L808.742 203.867H813.137L804.582 212.676L814.445 225H809.855L802.102 215.137ZM833.684 225C833.54 224.727 833.423 224.388 833.332 223.984C833.254 223.568 833.195 223.138 833.156 222.695C832.792 223.06 832.382 223.405 831.926 223.73C831.483 224.056 830.995 224.342 830.461 224.59C829.914 224.837 829.335 225.033 828.723 225.176C828.111 225.319 827.46 225.391 826.77 225.391C825.65 225.391 824.634 225.228 823.723 224.902C822.824 224.577 822.062 224.134 821.438 223.574C820.799 223.027 820.305 222.376 819.953 221.621C819.615 220.853 819.445 220.026 819.445 219.141C819.445 217.982 819.673 216.966 820.129 216.094C820.598 215.221 821.255 214.492 822.102 213.906C822.948 213.333 823.964 212.904 825.148 212.617C826.346 212.331 827.681 212.188 829.152 212.188H833.098V210.527C833.098 209.889 832.98 209.316 832.746 208.809C832.512 208.301 832.18 207.865 831.75 207.5C831.32 207.148 830.793 206.875 830.168 206.68C829.556 206.484 828.866 206.387 828.098 206.387C827.382 206.387 826.737 206.478 826.164 206.66C825.604 206.842 825.129 207.083 824.738 207.383C824.348 207.682 824.042 208.04 823.82 208.457C823.612 208.861 823.508 209.284 823.508 209.727H819.875C819.888 208.958 820.083 208.203 820.461 207.461C820.852 206.719 821.411 206.048 822.141 205.449C822.857 204.863 823.729 204.388 824.758 204.023C825.799 203.659 826.978 203.477 828.293 203.477C829.491 203.477 830.604 203.626 831.633 203.926C832.661 204.212 833.553 204.648 834.309 205.234C835.051 205.833 835.637 206.576 836.066 207.461C836.496 208.346 836.711 209.382 836.711 210.566V220.391C836.711 221.094 836.776 221.842 836.906 222.637C837.036 223.418 837.219 224.102 837.453 224.688V225H833.684ZM827.297 222.246C828 222.246 828.658 222.155 829.27 221.973C829.882 221.79 830.441 221.549 830.949 221.25C831.444 220.951 831.874 220.612 832.238 220.234C832.603 219.844 832.889 219.44 833.098 219.023V214.746H829.738C828.488 214.746 827.395 214.857 826.457 215.078C825.533 215.286 824.797 215.612 824.25 216.055C823.859 216.367 823.56 216.738 823.352 217.168C823.156 217.598 823.059 218.086 823.059 218.633C823.059 219.154 823.143 219.635 823.312 220.078C823.495 220.521 823.762 220.898 824.113 221.211C824.465 221.536 824.908 221.79 825.441 221.973C825.975 222.155 826.594 222.246 827.297 222.246Z" fill="black"/>
</g>
<defs>
<filter id="filter0_i_5_43" x="0" y="0" width="1260" height="424" filterUnits="userSpaceOnUse" color-interpolation-filters="sRGB">
<feFlood flood-opacity="0" result="BackgroundImageFix"/>
<feBlend mode="normal" in="SourceGraphic" in2="BackgroundImageFix" result="shape"/>
<feColorMatrix in="SourceAlpha" type="matrix" values="0 0 0 0 0 0 0 0 0 0 0 0 0 0 0 0 0 0 127 0" result="hardAlpha"/>
<feOffset dy="4"/>
<feGaussianBlur stdDeviation="50"/>
<feComposite in2="hardAlpha" operator="arithmetic" k2="-1" k3="1"/>
<feColorMatrix type="matrix" values="0 0 0 0 0 0 0 0 0 0 0 0 0 0 0 0 0 0 0.25 0"/>
<feBlend mode="normal" in2="shape" result="effect1_innerShadow_5_43"/>
</filter>
</defs>
</svg>
