<svg width="48" height="48" viewBox="0 0 48 48" fill="none" xmlns="http://www.w3.org/2000/svg">
<circle opacity="0.1" cx="24" cy="24" r="20" fill="url(#paint0_linear_0_1)"/>
<g clip-path="url(#clip0_0_1)">
<path d="M34.004 23.5141H14.0957" stroke="#5946D7" stroke-width="2" stroke-linecap="round" stroke-linejoin="round"/>
<path d="M27.5022 27.8696H28.5026" stroke="#5946D7" stroke-width="2" stroke-linecap="round" stroke-linejoin="round"/>
<path fill-rule="evenodd" clip-rule="evenodd" d="M13.9961 24.6145V30.641C13.9961 32.4808 15.4857 33.9731 17.3255 33.9764L30.671 34.0044C31.5556 34.0039 32.4038 33.652 33.0289 33.0261C33.6541 32.4002 34.005 31.5516 34.0044 30.667V17.3335C34.0055 15.4937 32.5168 14.0005 30.677 13.9961H22.1835C21.1645 13.9961 20.2013 14.462 19.5684 15.2606L15.4427 20.4768C14.5086 21.6539 13.9989 23.1118 13.9961 24.6145Z" stroke="#5946D7" stroke-width="2" stroke-linecap="round" stroke-linejoin="round"/>
<rect x="5.99219" y="5.99219" width="36.015" height="36.015" rx="5" stroke="#5946D7" stroke-width="2" stroke-linecap="round" stroke-linejoin="round"/>
</g>
<defs>
<linearGradient id="paint0_linear_0_1" x1="4" y1="24.3077" x2="41.2308" y2="24.3077" gradientUnits="userSpaceOnUse">
<stop stop-color="#4832D5"/>
<stop offset="1" stop-color="#5946D7" stop-opacity="0"/>
</linearGradient>
<clipPath id="clip0_0_1">
<rect width="48" height="48" fill="white"/>
</clipPath>
</defs>
</svg>
