<svg width="48" height="48" viewBox="0 0 48 48" fill="none" xmlns="http://www.w3.org/2000/svg">
<circle opacity="0.1" cx="24" cy="24" r="20" fill="url(#paint0_linear_0_1)"/>
<g clip-path="url(#clip0_0_1)">
<path d="M2 18V34" stroke="#5946D7" stroke-width="2" stroke-linecap="round" stroke-linejoin="round"/>
<path d="M24 6V14" stroke="#5946D7" stroke-width="2" stroke-linecap="round" stroke-linejoin="round"/>
<path d="M18 6H30" stroke="#5946D7" stroke-width="2" stroke-linecap="round" stroke-linejoin="round"/>
<path fill-rule="evenodd" clip-rule="evenodd" d="M40 18V22H36L32 14H16L12 18H8V34H14L17.448 40.894C17.786 41.572 18.478 42 19.236 42H32C33.104 42 34 41.104 34 40V34H40V38H44C45.104 38 46 37.104 46 36V20C46 18.896 45.104 18 44 18H40Z" stroke="#5946D7" stroke-width="2" stroke-linecap="round" stroke-linejoin="round"/>
<path d="M8 26H2" stroke="#5946D7" stroke-width="2" stroke-linecap="round" stroke-linejoin="round"/>
</g>
<defs>
<linearGradient id="paint0_linear_0_1" x1="4" y1="24.3077" x2="41.2308" y2="24.3077" gradientUnits="userSpaceOnUse">
<stop stop-color="#4832D5"/>
<stop offset="1" stop-color="#5946D7" stop-opacity="0"/>
</linearGradient>
<clipPath id="clip0_0_1">
<rect width="48" height="48" fill="white"/>
</clipPath>
</defs>
</svg>
