<svg width="48" height="48" viewBox="0 0 48 48" fill="none" xmlns="http://www.w3.org/2000/svg">
<circle opacity="0.1" cx="24" cy="24" r="20" fill="url(#paint0_linear_0_1)"/>
<g clip-path="url(#clip0_0_1)">
<path d="M16 36H26" stroke="#5946D7" stroke-width="2" stroke-linecap="round" stroke-linejoin="round"/>
<path d="M16 30H20" stroke="#5946D7" stroke-width="2" stroke-linecap="round" stroke-linejoin="round"/>
<path d="M10 14C10 12.8954 10.8954 12 12 12H29.1716C29.702 12 30.2107 12.2107 30.5858 12.5858L39.4142 21.4142C39.7893 21.7893 40 22.298 40 22.8284V39C40 40.6569 38.6569 42 37 42H13C11.3431 42 10 40.6569 10 39V14Z" stroke="#5946D7" stroke-width="2" stroke-linecap="round" stroke-linejoin="round"/>
<path d="M25 12V7C25 6.44772 24.5523 6 24 6H15C14.4477 6 14 6.44772 14 7V12" stroke="#5946D7" stroke-width="2"/>
<rect x="27.1211" y="16.8789" width="10.7574" height="5.37868" rx="2.68934" transform="rotate(45 27.1211 16.8789)" stroke="#5946D7" stroke-width="2"/>
</g>
<defs>
<linearGradient id="paint0_linear_0_1" x1="4" y1="24.3077" x2="41.2308" y2="24.3077" gradientUnits="userSpaceOnUse">
<stop stop-color="#4832D5"/>
<stop offset="1" stop-color="#5946D7" stop-opacity="0"/>
</linearGradient>
<clipPath id="clip0_0_1">
<rect width="48" height="48" fill="white"/>
</clipPath>
</defs>
</svg>
